<?xml version="1.0" encoding="UTF-8" standalone="no"?>
<!-- Generator: Adobe Illustrator 12.0.0, SVG Export Plug-In . SVG Version: 6.00 Build 51448)  -->
<svg
   xmlns:dc="http://purl.org/dc/elements/1.1/"
   xmlns:cc="http://web.resource.org/cc/"
   xmlns:rdf="http://www.w3.org/1999/02/22-rdf-syntax-ns#"
   xmlns:svg="http://www.w3.org/2000/svg"
   xmlns="http://www.w3.org/2000/svg"
   xmlns:xlink="http://www.w3.org/1999/xlink"
   xmlns:sodipodi="http://sodipodi.sourceforge.net/DTD/sodipodi-0.dtd"
   xmlns:inkscape="http://www.inkscape.org/namespaces/inkscape"
   version="1.1"
   id="Layer_1"
   width="671.967"
   height="335.982"
   viewBox="0 0 671.967 335.982"
   overflow="visible"
   enable-background="new 0 0 671.967 335.982"
   xml:space="preserve"
   sodipodi:version="0.32"
   inkscape:version="0.45.1"
   sodipodi:docname="Endocytosis_types-fr.svg"
   inkscape:output_extension="org.inkscape.output.svg.inkscape"
   sodipodi:docbase="C:\Documents and Settings\marcel\Bureau"><metadata
   id="metadata765"><rdf:RDF><cc:Work
       rdf:about=""><dc:format>image/svg+xml</dc:format><dc:type
         rdf:resource="http://purl.org/dc/dcmitype/StillImage" /></cc:Work></rdf:RDF></metadata><defs
   id="defs763"><radialGradient
     inkscape:collect="always"
     xlink:href="#XMLID_6_"
     id="radialGradient2281"
     gradientUnits="userSpaceOnUse"
     gradientTransform="matrix(1,0,0,-1,245.73697,337.60798)"
     cx="339.4451"
     cy="69.5588"
     r="26.8743" /><filter
     inkscape:collect="always"
     x="-0.29948207"
     width="1.5989641"
     y="-0.31557305"
     height="1.6311461"
     id="filter3374"><feGaussianBlur
       inkscape:collect="always"
       stdDeviation="5.6425472"
       id="feGaussianBlur3376" /></filter></defs><sodipodi:namedview
   inkscape:window-height="579"
   inkscape:window-width="748"
   inkscape:pageshadow="2"
   inkscape:pageopacity="0.0"
   guidetolerance="10.0"
   gridtolerance="10.0"
   objecttolerance="10.0"
   borderopacity="1.0"
   bordercolor="#666666"
   pagecolor="#ffffff"
   id="base"
   showguides="true"
   inkscape:guide-bbox="true"
   inkscape:zoom="2.7948927"
   inkscape:cx="587.19888"
   inkscape:cy="299.66315"
   inkscape:window-x="132"
   inkscape:window-y="132"
   inkscape:current-layer="Layer_1"><sodipodi:guide
     orientation="horizontal"
     position="275.26358"
     id="guide4931" /><sodipodi:guide
     orientation="horizontal"
     position="7.0839892"
     id="guide4933" /></sodipodi:namedview>
<rect
   x="0"
   y="2.364775e-014"
   width="671.96698"
   height="335.98199"
   id="rect3"
   style="fill:#ffffff" />
<radialGradient
   id="XMLID_4_"
   cx="370.4949"
   cy="193.094"
   r="301.5621"
   gradientTransform="matrix(0.8949 0 0 -0.9545 -7.7401 320.9333)"
   gradientUnits="userSpaceOnUse">
	<stop
   offset="0.0056"
   style="stop-color:#FBF6B3"
   id="stop6" />
	<stop
   offset="1"
   style="stop-color:#FFFFFF"
   id="stop8" />
</radialGradient>
<path
   d="M659.39,331.982h-647c0,0,0-160.475,0-160.586c0,0,27.75,0,29.218,0c11.309,0,22.618,0,33.927,0  c11.053,0,21.209,1.547,30.266-6.625c4.694-4.235,6.718-8.71,8.676-14.485c1.182-3.487,5.744-19.647,11.792-15.223  c4.564,3.341,5.098,15.381,5.133,20.208c0.04,5.485-0.787,11.565,2.843,16.112c5.334,6.681,15.989,4.476,23.133,2.136  c10.409-3.409,16.738-11.435,15.037-22.623c-1.203-7.911-2.276-21.379,10.489-17.397c11.634,3.627,9.012,23.868,18.855,30.695  c11.023,7.646,25.589,6.699,38.234,5.141c11.187-1.378,21.491,2.063,32.701,2.063c29.096,0,58.191,0,87.286,0  c54.709,0,109.418,0,164.127,0c37.349,0,74.697,0,112.046,0c1.16,0,23.238,0,23.238,0C659.39,171.421,659.39,331.982,659.39,331.982  z"
   id="path10"
   fill="url(#XMLID_4_)" />
<radialGradient
   id="XMLID_5_"
   cx="339.0388"
   cy="59.8528"
   r="287.9543"
   gradientTransform="matrix(1,0,0,-0.599,-2.2580948,256.77811)"
   gradientUnits="userSpaceOnUse">
	<stop
   offset="0.0056"
   style="stop-color:#B9D7E6"
   id="stop13" />
	<stop
   offset="0.2353"
   style="stop-color:#BDD9E8"
   id="stop15" />
	<stop
   offset="0.4791"
   style="stop-color:#CAE1EC"
   id="stop17" />
	<stop
   offset="0.7295"
   style="stop-color:#DFEDF4"
   id="stop19" />
	<stop
   offset="0.9831"
   style="stop-color:#FDFEFE"
   id="stop21" />
	<stop
   offset="1"
   style="stop-color:#FFFFFF"
   id="stop23" />
</radialGradient>
<path
   d="M 646.1871,170.83931 C 646.1871,170.83931 658.6061,170.83931 645.3161,170.83931 C 614.7311,170.83931 627.0641,170.18131 596.4871,170.83831 C 591.8341,170.93931 587.2391,170.68731 583.1051,172.88931 C 578.0341,175.59231 573.9331,180.41031 568.7651,183.24631 C 558.6481,188.80231 547.2401,190.94331 535.8561,188.69031 C 528.8281,187.29831 521.5371,183.27331 515.6701,179.37231 C 511.2191,176.41131 506.7421,171.25331 501.3581,170.04331 C 496.6231,168.98031 490.9281,170.83931 485.9121,170.83931 C 470.4981,170.83931 455.0851,170.83931 439.6721,170.83931 C 428.3881,170.83931 414.8611,168.75631 403.8021,170.83731 C 394.2581,172.63331 397.5751,181.87531 400.7281,188.05831 C 404.6841,195.82031 411.4561,200.36831 407.4661,209.80231 C 401.5511,223.79731 380.6951,227.18331 370.5221,216.03931 C 360.6581,205.23431 368.0171,194.02631 376.3721,185.35831 C 378.9961,182.63531 387.1841,177.82731 385.3671,173.47331 C 382.8631,167.46831 369.1481,170.83731 364.5871,170.83831 C 354.9071,170.84031 345.2281,170.83831 335.5471,170.83831 C 326.8001,170.83831 314.2471,168.47931 305.8801,170.83631 C 298.4471,172.93031 301.5121,179.61031 303.0231,185.47631 C 305.0891,193.50231 307.4041,202.08031 304.5211,210.22031 C 301.1691,219.67931 291.4131,229.01131 280.6671,226.00331 C 266.0411,221.90931 262.5001,209.19031 266.6901,196.37131 C 268.8301,189.82631 278.1271,176.82631 269.4361,171.79431 C 263.8531,168.56331 252.8361,170.83931 246.6681,170.83931 C 237.6091,170.83931 228.5511,170.83931 219.4921,170.83931 C 208.1331,170.83931 197.4821,168.34831 191.1751,157.86531 C 187.8321,152.30931 188.3051,140.59631 182.1981,137.30431 C 173.0481,132.37131 170.7681,145.21231 171.2121,150.95031 C 171.7751,158.20231 173.3761,167.09331 169.0771,173.34931 C 164.2011,180.44531 154.2501,181.73531 146.1541,182.34631 C 139.0911,182.88031 134.1891,178.76331 130.6861,172.94931 C 126.5071,166.01131 128.2471,156.67031 127.0611,148.72631 C 126.5461,145.28131 124.5611,129.35631 119.0491,138.33631 C 117.5341,140.80531 117.9271,142.96231 117.6831,145.69931 C 117.3821,149.05831 116.4431,152.18231 115.1971,155.32431 C 113.9051,158.58131 112.3251,161.82331 110.2511,164.65931 C 103.5131,173.87331 92.889102,170.83631 82.726105,170.83631 C 71.023105,170.83631 59.320105,170.83631 47.616105,170.83631 C 33.472105,170.83631 19.330105,170.83631 5.1861053,170.83631 L 5.1861053,46.836309 L 646.1861,46.836309 L 646.1861,170.83631 L 646.1871,170.83631 L 646.1871,170.83931 z "
   id="path25"
   style="fill:url(#XMLID_5_)" />
<g
   id="g27">
	<path
   fill="#FFBF00"
   stroke="#000000"
   stroke-width="2"
   d="M 67.413,162.25 L 92.736,162.25 L 96.711,162.365 C 103.522,162.669 106.236,162.462 107.732,159.05 C 108.652,156.95 109.823,155.146 110.855,153.552 C 112.308,151.31 113.563,149.372 113.932,147.044 L 114.143,144.598 C 114.469,139.731 114.914,133.066 119.804,130.772 C 122.607,129.456 125.765,130.045 129.187,132.522 C 138.498,139.261 135.361,153.013 133.579,158.613 C 131.792,164.226 132.564,169.103 135.809,172.718 C 139.997,177.384 147.684,179.386 155.396,177.822 C 161.758,176.532 170.76,170.279 171.249,165.651 C 171.578,162.564 170.476,159.254 169.31,155.747 C 167.987,151.772 166.488,147.267 166.919,142.355 C 167.288,138.153 169.108,134.511 172.044,132.1 C 174.793,129.843 178.236,128.867 182.001,129.277 C 191.443,130.303 191.897,139.549 192.141,144.517 C 192.236,146.481 192.335,148.513 192.75,149.621 C 195.183,156.132 200.867,160.167 210.638,162.321 C 213.016,162.847 216.247,162.647 219.373,162.454 L 224.293,162.249 L 237.623,162.249 C 243.475,162.249 249.525,162.249 255.466,162.525 C 256.579,162.576 258.02,162.45 259.542,162.317 C 263.563,161.966 268.567,161.527 272.614,164.072 C 278.902,168.028 281.256,175.177 278.906,183.198 C 277.914,186.588 276.156,189.353 274.604,191.792 C 273.191,194.016 271.855,196.116 271.233,198.434 C 269.749,203.963 271.361,208.477 276.303,212.642 C 283.171,218.429 287.006,219.164 293.402,215.921 C 298.226,213.475 303.476,208.113 303.605,202.121 C 303.649,200.108 301.345,195.517 299.491,191.829 C 295.611,184.107 291.601,176.119 294.563,169.507 C 296.054,166.178 299.025,163.893 303.395,162.715 C 308.461,161.35 314.242,161.697 319.344,162.005 L 325.223,162.25 C 332.752,162.25 340.384,162.108 347.763,161.971 C 357.413,161.795 367.385,161.606 377.313,161.733 L 377.949,161.739 C 381.828,161.774 388.32,161.832 390.506,168.725 C 393.252,177.382 384.954,183.513 378.894,187.99 C 376.748,189.575 374.528,191.215 373.567,192.4 C 369.614,197.271 369.892,201.98 370.822,205.073 C 372.446,210.474 377.185,215.003 383.19,216.894 C 389.09,218.751 401.485,212.934 404.582,206.855 C 405.753,204.55 406.987,200.997 406.185,197.153 C 405.606,194.376 403.418,191.988 400.887,189.223 C 397.781,185.833 394.264,181.988 393.285,176.502 C 392.433,171.705 393.267,167.907 395.764,165.214 C 400.195,160.433 407.899,161.211 414.087,161.836 L 415.263,161.952 C 421.201,162.529 427.126,162.431 433.399,162.327 L 440.611,162.249 C 447.143,162.249 453.809,162.079 460.256,161.916 C 460.256,161.916 475.647,161.603 475.648,161.603 C 478.392,161.576 480.878,161.931 483.281,162.274 C 485.004,162.52 486.631,162.754 488.219,162.819 C 489.474,162.871 490.996,162.576 492.607,162.263 C 495.806,161.641 499.787,160.868 503.839,162.557 C 506.773,163.782 508.888,166.228 510.751,168.387 C 511.69,169.471 512.658,170.593 513.431,171.169 C 521.295,177.03 533.867,180.931 544.717,180.872 C 553.769,180.822 561.578,178.01 569.297,172.019 L 569.839,171.598 C 575.758,166.998 580.87,163.025 589.672,162.224 C 593.856,161.844 597.912,162.175 601.833,162.495 C 604.461,162.711 606.941,162.914 609.4,162.907 C 609.4,162.907 633.11527,162.59653 647.39736,162.45532 C 651.4203,162.41555 664.35527,162.29975 666.14048,162.29755 C 666.2101,164.43681 666.07726,163.71837 666.11377,166.69297 C 666.13346,168.86298 666.2545,168.43273 666.25146,171.49255 C 628.66967,172.26018 609.423,171.906 609.422,171.906 C 606.583,171.914 603.795,171.686 601.099,171.465 C 597.396,171.164 593.897,170.875 590.487,171.186 C 584.31,171.749 580.941,174.367 575.359,178.704 L 574.814,179.129 C 565.577,186.299 555.746,189.812 544.764,189.871 C 531.915,189.941 517.505,185.432 508.05,178.385 C 506.488,177.22 505.193,175.72 503.94,174.27 C 502.786,172.933 501.351,171.27 500.374,170.863 C 498.834,170.221 496.742,170.627 494.322,171.097 C 492.367,171.477 490.153,171.907 487.842,171.81 C 485.805,171.724 483.874,171.449 482.008,171.182 C 479.842,170.873 477.799,170.581 475.738,170.602 L 460.483,170.911 C 453.981,171.076 447.258,171.246 440.612,171.246 L 433.549,171.324 C 427.301,171.428 420.841,171.533 414.394,170.907 L 413.186,170.786 C 409.889,170.453 403.753,169.834 402.366,171.329 C 402.019,171.703 401.78,172.844 402.15,174.92 C 402.669,177.835 404.921,180.294 407.528,183.142 C 410.521,186.412 413.914,190.117 414.998,195.311 C 416.055,200.382 415.228,205.785 412.605,210.936 C 407.88,220.211 391.459,228.928 380.491,225.475 C 371.684,222.702 364.678,215.876 362.207,207.66 C 360.008,200.345 361.562,192.91 366.583,186.724 C 368.266,184.651 370.832,182.755 373.551,180.746 C 377.206,178.045 382.733,173.962 381.933,171.441 C 381.866,171.233 381.806,171.133 381.802,171.124 C 381.319,170.764 379.161,170.745 377.872,170.733 L 377.203,170.726 C 367.416,170.601 357.514,170.785 347.936,170.964 C 340.515,171.101 332.84,171.244 325.228,171.244 L 318.809,170.982 C 314.18,170.703 309.392,170.416 305.742,171.399 C 304.62,171.7 303.196,172.256 302.782,173.179 C 301.567,175.891 305.161,183.049 307.539,187.783 C 310.309,193.298 312.701,198.06 312.609,202.309 C 312.384,212.726 304.318,220.472 297.479,223.94 C 286.226,229.647 278.559,226.299 270.51,219.516 C 262.908,213.111 260.155,205.011 262.547,196.094 C 263.527,192.442 265.38,189.526 267.017,186.955 C 268.367,184.832 269.643,182.828 270.277,180.662 C 271.498,176.493 270.676,173.472 267.83,171.683 C 266.346,170.75 263.152,171.028 260.335,171.275 C 258.583,171.428 256.772,171.587 255.056,171.507 C 249.323,171.239 243.38,171.239 237.632,171.239 L 224.303,171.239 L 219.937,171.427 C 216.366,171.647 212.319,171.896 208.708,171.1 C 196.034,168.304 187.831,162.135 184.33,152.761 C 183.426,150.341 183.291,147.599 183.161,144.948 C 182.853,138.689 182.255,138.347 181.038,138.215 C 179.715,138.07 178.615,138.351 177.767,139.047 C 176.732,139.897 176.049,141.386 175.897,143.133 C 175.629,146.187 176.713,149.447 177.861,152.898 C 179.213,156.96 180.744,161.565 180.212,166.59 C 179.05,177.558 164.409,185.171 157.198,186.633 C 146.42,188.819 135.401,185.713 129.124,178.72 C 125.5,174.682 123.647,169.713 123.647,164.261 C 123.647,161.565 124.099,158.752 125.015,155.875 C 125.937,152.975 126.581,149.753 126.581,146.895 C 126.581,143.838 125.845,141.195 123.922,139.804 C 123.864,139.761 123.824,139.738 123.769,139.701 C 123.394,141.327 123.221,143.904 123.134,145.188 L 122.832,148.442 C 122.164,152.656 120.174,155.727 118.419,158.436 C 117.49,159.871 116.612,161.224 115.985,162.655 C 111.869,172.038 102.883,171.639 96.322,171.347 L 92.751,171.24 L 67.413,171.24"
   id="path29"
   sodipodi:nodetypes="cccssccssssscssssssccccsssssssssssscccccssssscsscscccccssssssssccsscscccssscccssssssccccccsssscsssssscccccssssscsssssscccsssssssssssssscccssccc" />
</g>
<line
   fill="none"
   stroke="#000000"
   stroke-width="1.7122"
   x1="232.39"
   y1="45.734"
   x2="232.39"
   y2="331.396"
   id="line31" />
<line
   fill="none"
   stroke="#000000"
   stroke-width="1.6178"
   x1="449.39"
   y1="44.396"
   x2="449.39"
   y2="331.982"
   id="line33" />




































<g
   id="g231">
	<path
   fill="#FFBF00"
   stroke="#000000"
   stroke-width="2"
   d="M129.741,231.204c-6.691,5.797-10.555,13.472-10.878,21.61   c-0.521,13.078,8.996,25.897,21.664,29.184c13.573,3.521,30.55-2.377,38.651-13.429l0,0c2.277-3.107,3.83-6.522,4.613-10.149   c1.875-8.677,0.407-16.654-4.246-23.07c-5.139-7.086-13.651-11.578-23.972-12.646C146.614,221.774,136.957,224.952,129.741,231.204   z M142.786,273.287c-8.585-2.229-15.283-11.251-14.93-20.115c0.224-5.628,2.985-11.014,7.777-15.166   c5.372-4.654,12.479-7.028,19.014-6.353c7.741,0.803,13.997,3.991,17.613,8.979c2.196,3.029,3.313,6.662,3.313,10.688   c0,1.67-0.192,3.408-0.579,5.198c-0.515,2.383-1.55,4.648-3.076,6.73C165.943,271.401,152.874,275.904,142.786,273.287z"
   id="path233" />
</g>
<radialGradient
   id="XMLID_6_"
   cx="339.4451"
   cy="69.5588"
   r="26.8743"
   gradientTransform="matrix(1,0,0,-1,0.4814932,335.09064)"
   gradientUnits="userSpaceOnUse">
	<stop
   offset="0.0056"
   style="stop-color:#B9D7E6"
   id="stop236" />
	<stop
   offset="1"
   style="stop-color:#FFFFFF"
   id="stop238" />
</radialGradient>
<path
   d="M 361.10869,272.90204 C 372.02069,243.64104 323.69869,234.34704 317.94469,262.05204 C 315.47369,273.94904 323.27769,286.87004 335.74269,288.21604 C 346.99569,289.43004 357.17969,283.43904 361.10869,272.90204 z "
   id="path240"
   style="fill:url(#XMLID_6_)" />
<g
   id="g242">
	<path
   fill="#FFBF00"
   stroke="#000000"
   stroke-width="2"
   d="M319.549,246.835c-5.389,5.294-8.416,12.647-8.416,20.348   c0,0.437,0.011,0.871,0.029,1.31c0.494,11.104,6.977,20.438,16.917,24.357c10.651,4.199,22.543,2.451,31.036-4.563   c8.018-6.622,11.47-16.533,9.47-27.192c-1.797-9.573-9.011-17.219-19.297-20.451C338.501,237.255,326.828,239.686,319.549,246.835z    M331.382,284.477c-6.592-2.6-10.895-8.878-11.228-16.386l0,0c-0.25-5.622,1.828-11.03,5.702-14.836   c4.938-4.852,13.077-6.431,20.733-4.024c7.062,2.219,11.978,7.274,13.149,13.524c1.378,7.343-0.938,14.12-6.355,18.594   C347.418,286.277,338.987,287.476,331.382,284.477z M311.163,268.492L311.163,268.492L311.163,268.492z"
   id="path244" />
</g>



















<line
   fill="none"
   stroke="#000000"
   stroke-width="2"
   x1="3.39"
   y1="29.396"
   x2="666.39"
   y2="29.396"
   id="line396" />

<rect
   x="254.39"
   y="94.796"
   fill="#0060B6"
   width="8"
   height="7.2"
   id="rect450" />
<rect
   x="370.539"
   y="90.172"
   transform="matrix(-0.743 -0.6693 0.6693 -0.743 590.0374 414.135)"
   fill="#0060B6"
   width="8"
   height="7.2"
   id="rect452" />
<rect
   x="308.379"
   y="116.022"
   transform="matrix(-0.7429 -0.6694 0.6694 -0.7429 464.3684 417.598)"
   fill="#0060B6"
   width="8"
   height="7.2"
   id="rect454" />
<rect
   x="345.384"
   y="265.791"
   transform="matrix(-0.9665 0.2566 -0.2566 -0.9665 756.198 440.1041)"
   fill="#0060B6"
   width="7.999"
   height="7.2"
   id="rect456" />
<rect
   x="524.322"
   y="93.338"
   transform="matrix(-0.9665 0.2566 -0.2566 -0.9665 1063.8293 55.0704)"
   fill="#0060B6"
   width="8"
   height="7.199"
   id="rect458" />
<rect
   x="604.38"
   y="72.804"
   transform="matrix(-0.9665 0.2566 -0.2566 -0.9665 1215.9943 -5.8701)"
   fill="#0060B6"
   width="7.999"
   height="7.2"
   id="rect460" />
<rect
   x="416.218"
   y="130.225"
   fill="#0060B6"
   width="8.001"
   height="7.2"
   id="rect462" />
<rect
   x="268.39"
   y="138.017"
   fill="#0060B6"
   width="8"
   height="7.2"
   id="rect464" />
<rect
   x="566.42"
   y="118.425"
   fill="#0060B6"
   width="8"
   height="7.2"
   id="rect466" />
<rect
   x="614.361"
   y="141.392"
   transform="matrix(-0.6141 -0.7892 0.7892 -0.6141 883.6967 722.0449)"
   fill="#0060B6"
   width="8"
   height="7.2"
   id="rect468" />
<rect
   x="280.533"
   y="191.656"
   transform="matrix(-0.6142 -0.7892 0.7892 -0.6142 305.1913 539.7228)"
   fill="#0060B6"
   width="8.001"
   height="7.199"
   id="rect470" />





<path
   fill="#BF0000"
   stroke="#FF7F00"
   stroke-width="2"
   d="M138.188,126.551c-0.26,1.73-0.079,3.828,0.686,6.286  c1.661,5.338,4.834,9.834,5.528,15.365c0.658,5.239-1.462,11.3,0.277,16.283c1.251,3.585,6.309,6.035,9.948,5.336  c5.17-0.992,7.09-9.41,7.67-13.929c1.261-9.806-0.082-22.275-6.668-30.104C149.397,118.376,139.354,118.792,138.188,126.551z"
   id="path510" />
<path
   fill="#BF0000"
   stroke="#FF7F00"
   stroke-width="2"
   d="M192.735,56.399c-1.73,0.269-3.677,1.067-5.794,2.531  c-4.6,3.178-7.943,7.55-13.014,9.863c-4.805,2.19-11.222,1.977-15.46,5.125c-3.048,2.264-3.876,7.821-2.122,11.088  c2.489,4.638,11.098,3.957,15.583,3.163c9.733-1.726,21.235-6.728,26.742-15.352C203.882,64.656,200.489,55.196,192.735,56.399z"
   id="path512" />
<path
   fill="#BF0000"
   stroke="#FF7F00"
   stroke-width="2"
   d="M163.989,238.808c-1.453,0.119-2.909,0.514-4.025,0.917  c-6.002,2.167-10.928,8.139-15.231,12.579c0.886-1.284,2.055-2.552,2.893-3.735c-5.804-3.125-13.731-4.021-15.847,3.9  c-1.972,7.386,3.372,14.577,10.355,16.288c2.037,0.499,4.142,0.715,6.236,0.625c9.076-0.385,15.898-6.124,20.906-13.23  c3.534-5.015,3.648-11.062-0.419-15.856C167.724,238.961,165.859,238.656,163.989,238.808z"
   id="path514" />
<rect
   x="28.39"
   y="90.796"
   fill="#0060B6"
   width="8"
   height="7.2"
   id="rect516" />
<rect
   x="203.626"
   y="126.529"
   fill="#0060B6"
   width="8"
   height="7.2"
   id="rect518" />
<rect
   x="98.385"
   y="99.796"
   transform="matrix(-0.743 -0.6693 0.6693 -0.743 109.2449 248.7455)"
   fill="#0060B6"
   width="8"
   height="7.2"
   id="rect520" />
<rect
   x="39.391"
   y="131.564"
   transform="matrix(-0.6141 -0.7892 0.7892 -0.6141 -36.6307 252.418)"
   fill="#0060B6"
   width="8"
   height="7.2"
   id="rect522" />
<polygon
   fill="#FF7F00"
   points="103.257,79.313 97.39,76.93 92.101,80.413 92.554,74.097 87.606,70.143 93.754,68.622   95.985,62.695 99.333,68.071 105.658,68.362 101.579,73.207 "
   id="polygon524" />
<polygon
   fill="#FF7F00"
   points="331.257,98.778 325.39,96.396 320.101,99.879 320.554,93.563 315.606,89.608 321.754,88.087   323.985,82.161 327.333,87.537 333.658,87.828 329.579,92.672 "
   id="polygon526" />
<polygon
   fill="#FF7F00"
   points="429.258,104.778 423.39,102.396 418.101,105.879 418.554,99.563 413.606,95.608 419.754,94.087   421.985,88.161 425.333,93.537 431.658,93.828 427.579,98.672 "
   id="polygon528" />
<polygon
   fill="#FF7F00"
   points="622.258,124.778 616.39,122.396 611.101,125.879 611.554,119.563 606.606,115.608 612.755,114.087   614.985,108.161 618.333,113.537 624.658,113.828 620.579,118.672 "
   id="polygon530" />
<polygon
   fill="#FF7F00"
   points="372.257,141.778 366.39,139.396 361.101,142.879 361.554,136.563 356.606,132.608 362.754,131.087   364.985,125.161 368.333,130.537 374.658,130.828 370.579,135.672 "
   id="polygon532" />
<polygon
   fill="#FF7F00"
   points="539.925,141.278 534.057,138.896 528.768,142.379 529.221,136.063 524.273,132.108 530.422,130.587   532.652,124.661 536.001,130.037 542.325,130.328 538.246,135.172 "
   id="polygon534" />
<polygon
   fill="#FF7F00"
   points="496.094,120.612 490.226,118.229 484.937,121.712 485.39,115.396 480.442,111.442 486.591,109.921   488.821,103.995 492.17,109.371 498.494,109.662 494.415,114.506 "
   id="polygon536" />


<path
   fill="#BF0000"
   d="M514.042,177.968c-1.813,1.844-8.021,5.078-7.684,7.793c0.252,2.029,2.724,2.562,3.996,1.028  C512.273,184.475,511.746,180.302,514.042,177.968z"
   id="path556" />
<path
   fill="#BF0000"
   d="M529.716,184.872c-1.121,2.331-5.95,7.396-4.754,9.857c0.895,1.839,3.404,1.544,4.113-0.317  C530.144,191.601,528.297,187.823,529.716,184.872z"
   id="path558" />
<path
   fill="#BF0000"
   d="M545.857,186.693c0.089,2.584-1.837,9.313,0.364,10.938c1.646,1.213,3.732-0.213,3.496-2.191  C549.359,192.454,545.97,189.965,545.857,186.693z"
   id="path560" />
<path
   fill="#BF0000"
   d="M561.643,183.599c1.039,2.368,1.739,9.332,4.386,10.027c1.979,0.519,3.391-1.579,2.438-3.33  C567.028,187.656,562.958,186.597,561.643,183.599z"
   id="path562" />
<path
   fill="#BF0000"
   d="M573.159,176.26c1.684,1.963,4.376,8.423,7.11,8.319c2.043-0.079,2.784-2.496,1.364-3.895  C579.491,178.576,575.289,178.746,573.159,176.26z"
   id="path564" />
<path
   fill="#006B33"
   d="M543.052,182.009c-0.162,0.397-0.256,0.771,0.08,1.001c0.247,0.168,1.411,0.074,1.63-0.069  c0.556-0.363,0.16-1.497,0.236-2.024c0.104-0.694,0.498-1.688,0.893-2.269c1.172-1.722,2.714-2.997,3.184-5.104  c0.362-1.628,0.188-3.669-1.565-4.397c-0.709-0.295-1.724,0.147-1.374,1.13c0.21,0.594,0.926,0.857,1.146,1.521  c0.207,0.625,0.109,1.222-0.195,1.796c-0.555,1.04-1.871,1.894-3.069,1.795c-1.468-0.121-2.899-1.331-2.919-2.873  c-0.013-0.997,2.241-3.021,0.892-3.592c-1.571-0.664-2.721,2.624-2.863,3.676c-0.354,2.598,1.725,3.846,3.115,5.669  c0.537,0.704,1.09,1.762,1.153,2.663C543.415,181.245,543.203,181.637,543.052,182.009z"
   id="path566" />
<polygon
   fill="#FF7F00"
   points="553.499,168.504 547.202,169.172 544.183,174.739 541.601,168.957 535.373,167.806 540.075,163.563   539.245,157.286 544.734,160.445 550.448,157.716 549.138,163.913 "
   id="polygon568" />
<path
   fill="#006B33"
   d="M478.202,162.135c-0.162,0.398-0.256,0.771,0.08,1.001c0.247,0.168,1.411,0.074,1.63-0.069  c0.557-0.363,0.16-1.497,0.237-2.024c0.104-0.694,0.498-1.688,0.892-2.269c1.173-1.722,2.715-2.997,3.185-5.104  c0.362-1.628,0.187-3.669-1.566-4.397c-0.709-0.295-1.723,0.147-1.374,1.13c0.21,0.594,0.927,0.857,1.146,1.521  c0.207,0.625,0.108,1.222-0.196,1.796c-0.554,1.04-1.871,1.894-3.069,1.795c-1.468-0.121-2.898-1.331-2.919-2.873  c-0.013-0.997,2.241-3.021,0.893-3.592c-1.572-0.664-2.722,2.624-2.864,3.676c-0.354,2.599,1.725,3.846,3.116,5.669  c0.537,0.704,1.089,1.762,1.152,2.663C478.565,161.371,478.354,161.763,478.202,162.135z"
   id="path570" />
<path
   fill="#006B33"
   d="M507.872,167.108c-0.354,0.243-0.639,0.503-0.483,0.879c0.113,0.276,1.137,0.84,1.397,0.841  c0.664,0.003,0.958-1.161,1.313-1.56c0.468-0.521,1.346-1.134,1.993-1.4c1.927-0.791,3.916-1.007,5.469-2.507  c1.2-1.159,2.178-2.959,1.116-4.532c-0.431-0.638-1.52-0.826-1.771,0.187c-0.15,0.611,0.3,1.226,0.119,1.901  c-0.172,0.635-0.583,1.081-1.154,1.391c-1.033,0.563-2.604,0.55-3.551-0.193c-1.158-0.909-1.687-2.708-0.853-4.005  c0.538-0.838,3.535-1.288,2.723-2.507c-0.946-1.42-3.716,0.691-4.415,1.49c-1.728,1.973-0.68,4.16-0.522,6.448  c0.061,0.883-0.063,2.07-0.506,2.857C508.597,166.671,508.203,166.882,507.872,167.108z"
   id="path572" />
<path
   fill="#006B33"
   d="M578.55,165.792c0.147,0.402,0.331,0.744,0.731,0.687c0.296-0.042,1.095-0.895,1.16-1.146  c0.167-0.644-0.889-1.215-1.187-1.658c-0.392-0.583-0.768-1.584-0.865-2.278c-0.291-2.063-0.007-4.043-1.077-5.919  c-0.827-1.449-2.33-2.84-4.117-2.2c-0.723,0.259-1.176,1.268-0.256,1.761c0.554,0.298,1.262,0.012,1.871,0.354  c0.573,0.323,0.903,0.831,1.063,1.461c0.29,1.143-0.109,2.66-1.063,3.394c-1.167,0.896-3.04,0.966-4.092-0.162  c-0.681-0.729-0.375-3.744-1.757-3.258c-1.609,0.565-0.248,3.771,0.354,4.646c1.484,2.161,3.862,1.688,6.119,2.1  c0.87,0.16,1.99,0.572,2.645,1.195C578.305,164.982,578.411,165.415,578.55,165.792z"
   id="path574" />
<path
   fill="#006B33"
   d="M609.552,163.756c-0.162,0.397-0.256,0.771,0.08,1.001c0.247,0.168,1.411,0.074,1.63-0.069  c0.556-0.363,0.16-1.497,0.237-2.024c0.103-0.694,0.497-1.688,0.892-2.269c1.172-1.722,2.714-2.997,3.184-5.104  c0.362-1.628,0.188-3.669-1.565-4.397c-0.709-0.295-1.724,0.147-1.374,1.13c0.21,0.594,0.926,0.857,1.146,1.521  c0.207,0.625,0.109,1.222-0.195,1.796c-0.555,1.04-1.871,1.894-3.069,1.795c-1.468-0.121-2.899-1.331-2.919-2.873  c-0.013-0.997,2.241-3.021,0.892-3.592c-1.571-0.664-2.721,2.624-2.863,3.676c-0.354,2.598,1.725,3.846,3.115,5.669  c0.537,0.704,1.09,1.762,1.153,2.663C609.914,162.993,609.702,163.385,609.552,163.756z"
   id="path576" />
<polygon
   fill="#FF7F00"
   points="581.258,93.445 575.39,91.063 570.101,94.546 570.554,88.229 565.606,84.275 571.755,82.754   573.985,76.828 577.333,82.204 583.658,82.495 579.579,87.339 "
   id="polygon578" />
<path
   d="M 606.36417,275.41938 C 617.27617,246.15838 568.95417,236.86438 563.20017,264.56938 C 560.72917,276.46638 568.53317,289.38738 580.99817,290.73338 C 592.25117,291.94738 602.43517,285.95638 606.36417,275.41938 z "
   id="path2279"
   style="fill:url(#radialGradient2281);opacity:0.62195122;filter:url(#filter3374)" /><g
   id="g580">
	<g
   id="g582">
		<path
   fill="#FFBF00"
   stroke="#000000"
   stroke-width="2"
   d="M571.68,241.602c-8.25,2.959-14.877,9.619-18.184,18.273    c-3.375,8.834-2.854,18.432,1.427,26.331c9.82,18.121,31.61,20.599,48.061,13.679c8.034-3.38,14.128-11.505,16.302-21.734    c0.567-2.67,0.845-5.346,0.845-7.962c0-8.029-2.604-15.511-7.39-20.608C603.202,239.42,583.809,237.252,571.68,241.602z     M562.836,281.917c-3.028-5.588-3.368-12.451-0.932-18.83c2.368-6.199,7.038-10.942,12.813-13.013    c9.045-3.244,24.759-1.477,31.461,5.664l0,0c4.294,4.573,5.982,12.637,4.304,20.54c-1.562,7.35-5.669,13.072-10.988,15.312    C586.78,296.938,570.105,295.333,562.836,281.917z M612.74,249.58L612.74,249.58L612.74,249.58z"
   id="path584" />
	</g>
	<path
   fill="#BF0000"
   d="M559.9,287.337c-2.322,1.14-9.249,2.138-9.83,4.812c-0.434,1.998,1.724,3.319,3.432,2.292   C556.078,292.892,556.962,288.78,559.9,287.337z"
   id="path586" />
	<path
   fill="#BF0000"
   d="M571.826,295.773c-1.548,2.073-7.26,6.118-6.558,8.762c0.523,1.979,3.045,2.17,4.099,0.479   C570.955,302.459,569.867,298.397,571.826,295.773z"
   id="path588" />
	<path
   fill="#BF0000"
   d="M588.492,298.675c-0.565,2.522-4.129,8.549-2.409,10.676c1.286,1.591,3.666,0.737,3.938-1.237   C590.427,305.134,587.774,301.87,588.492,298.675z"
   id="path590" />
	<path
   fill="#BF0000"
   d="M606.068,294.149c1.039,2.369,1.739,9.332,4.386,10.027c1.979,0.52,3.391-1.578,2.438-3.33   C611.454,298.206,607.385,297.147,606.068,294.149z"
   id="path592" />
	<path
   fill="#BF0000"
   d="M614.203,281.657c2.294,1.194,7.2,6.186,9.698,5.069c1.867-0.834,1.654-3.354-0.185-4.122   C620.942,281.446,617.106,283.169,614.203,281.657z"
   id="path594" />
	<path
   fill="#BF0000"
   d="M603.451,248.427c1.903-1.752,8.265-4.672,8.063-7.401c-0.151-2.039-2.594-2.692-3.94-1.225   C605.542,242.018,605.86,246.21,603.451,248.427z"
   id="path596" />
	<path
   fill="#BF0000"
   d="M586.72,243.251c0.2-2.577,2.864-9.05,0.857-10.909c-1.5-1.391-3.732-0.205-3.719,1.787   C583.883,237.135,586.973,239.987,586.72,243.251z"
   id="path598" />
	<path
   fill="#BF0000"
   d="M568.983,247.301c-1.287-2.244-2.735-9.092-5.439-9.496c-2.022-0.304-3.2,1.934-2.064,3.572   C563.192,243.848,567.354,244.461,568.983,247.301z"
   id="path600" />
	<path
   fill="#BF0000"
   d="M558.057,259.69c-1.882-1.773-5.245-7.912-7.953-7.518c-2.021,0.294-2.504,2.775-0.943,4.018   C551.515,258.058,555.676,257.444,558.057,259.69z"
   id="path602" />
	<path
   fill="#BF0000"
   d="M555.183,273.493c-2.5-0.659-8.389-4.442-10.578-2.803c-1.636,1.228-0.873,3.637,1.091,3.979   C548.656,275.187,552.018,272.658,555.183,273.493z"
   id="path604" />
	<path
   fill="#BF0000"
   d="M614.164,263.222c2.587-0.074,9.305,1.889,10.94-0.303c1.224-1.64-0.19-3.734-2.172-3.51   C619.945,259.751,617.438,263.127,614.164,263.222z"
   id="path606" />
	<path
   fill="#006B33"
   d="M584.643,297.14c-0.162,0.397-0.256,0.772,0.08,1.001c0.247,0.168,1.411,0.074,1.63-0.067   c0.556-0.364,0.16-1.498,0.237-2.025c0.103-0.693,0.498-1.688,0.892-2.269c1.172-1.722,2.714-2.995,3.185-5.104   c0.361-1.628,0.187-3.669-1.566-4.397c-0.709-0.295-1.723,0.146-1.374,1.132c0.21,0.593,0.926,0.856,1.146,1.521   c0.207,0.624,0.109,1.222-0.195,1.796c-0.555,1.04-1.871,1.896-3.069,1.796c-1.468-0.121-2.898-1.331-2.919-2.872   c-0.013-0.997,2.241-3.022,0.893-3.593c-1.572-0.663-2.722,2.624-2.864,3.676c-0.354,2.6,1.725,3.848,3.116,5.669   c0.537,0.704,1.089,1.764,1.152,2.664C585.007,296.376,584.795,296.768,584.643,297.14z"
   id="path608" />
	<path
   fill="#006B33"
   d="M608.84,255.866c0.407-0.135,0.754-0.308,0.71-0.711c-0.032-0.297-0.858-1.121-1.109-1.195   c-0.637-0.188-1.244,0.849-1.695,1.134c-0.594,0.371-1.607,0.716-2.304,0.792c-2.071,0.224-4.042-0.123-5.95,0.887   c-1.476,0.78-2.914,2.238-2.331,4.046c0.236,0.73,1.229,1.215,1.751,0.312c0.316-0.543,0.054-1.26,0.414-1.858   c0.342-0.563,0.859-0.875,1.494-1.016c1.151-0.253,2.656,0.195,3.358,1.172c0.858,1.195,0.869,3.069-0.293,4.084   c-0.751,0.656-3.755,0.256-3.313,1.652c0.514,1.626,3.761,0.368,4.655-0.205c2.207-1.414,1.809-3.808,2.294-6.048   c0.188-0.864,0.635-1.972,1.279-2.604C608.021,256.083,608.458,255.992,608.84,255.866z"
   id="path610" />
	<path
   fill="#006B33"
   d="M564.049,254.762c-0.238-0.357-0.495-0.646-0.873-0.496c-0.277,0.109-0.854,1.125-0.859,1.387   c-0.011,0.664,1.148,0.976,1.542,1.334c0.516,0.477,1.116,1.361,1.374,2.014c0.765,1.937,0.952,3.929,2.432,5.503   c1.145,1.215,2.931,2.217,4.519,1.176c0.643-0.42,0.847-1.507-0.162-1.771c-0.609-0.16-1.229,0.282-1.902,0.094   c-0.633-0.181-1.071-0.599-1.376-1.173c-0.548-1.042-0.515-2.612,0.241-3.549c0.925-1.146,2.729-1.649,4.018-0.799   c0.831,0.549,1.238,3.554,2.47,2.757c1.433-0.928-0.643-3.726-1.431-4.436c-1.949-1.753-4.15-0.735-6.44-0.61   c-0.884,0.05-2.069-0.09-2.851-0.543C564.476,255.493,564.271,255.096,564.049,254.762z"
   id="path612" />
	<polygon
   fill="#FF7F00"
   points="594.514,282.944 588.223,283.663 585.247,289.251 582.621,283.49 576.385,282.386 581.053,278.108    580.176,271.836 585.687,274.954 591.381,272.18 590.118,278.386  "
   id="polygon614" />
	<polygon
   fill="#FF7F00"
   points="602.11,270.336 595.945,268.89 591.26,273.15 590.729,266.84 585.229,263.7 591.066,261.246    592.354,255.044 596.494,259.836 602.787,259.145 599.509,264.563  "
   id="polygon616" />
	<polygon
   fill="#FF7F00"
   points="586.052,263.286 580.636,266.571 580.272,272.893 575.477,268.758 569.351,270.368    571.801,264.526 568.379,259.2 574.689,259.723 578.698,254.821 580.15,260.986  "
   id="polygon618" />
</g>















<line
   fill="none"
   stroke="#000000"
   x1="530.39"
   y1="274.896"
   x2="553.294"
   y2="261.917"
   id="line698" />






<line
   fill="none"
   stroke="#000000"
   x1="611.89"
   y1="202.396"
   x2="575.434"
   y2="163.572"
   id="line728" />





<polyline
   fill="none"
   stroke="#000000"
   points="125.033,148.443 114.89,204.396 179.427,147.859 "
   id="polyline758" />
<rect
   x="656.137"
   y="163.359"
   fill="#FFBF00"
   width="11.252"
   height="7.285"
   id="rect760" />
<text
   xml:space="preserve"
   style="font-size:16px;font-style:normal;font-variant:normal;font-weight:normal;font-stretch:normal;text-align:start;line-height:125%;writing-mode:lr-tb;text-anchor:start;fill:#000000;fill-opacity:1;stroke:none;stroke-width:1px;stroke-linecap:butt;stroke-linejoin:miter;stroke-opacity:1;font-family:Arial Black"
   x="8.095993"
   y="17.202477"
   id="text2917"
   sodipodi:linespacing="125%"><tspan
     sodipodi:role="line"
     id="tspan2919"
     x="8.095993"
     y="17.202477">Endocytose</tspan></text>

<text
   xml:space="preserve"
   style="font-size:14px;font-style:normal;font-variant:normal;font-weight:normal;font-stretch:normal;text-align:start;line-height:125%;writing-mode:lr-tb;text-anchor:start;fill:#000000;fill-opacity:1;stroke:none;stroke-width:1px;stroke-linecap:butt;stroke-linejoin:miter;stroke-opacity:1;font-family:Arial"
   x="17.203985"
   y="57.772125"
   id="text2921"
   sodipodi:linespacing="125%"><tspan
     sodipodi:role="line"
     id="tspan2923"
     x="17.203985"
     y="57.772125">Phagocytose </tspan></text>

<text
   xml:space="preserve"
   style="font-size:14px;font-style:normal;font-variant:normal;font-weight:normal;font-stretch:normal;text-align:start;line-height:125%;writing-mode:lr-tb;text-anchor:start;fill:#000000;fill-opacity:1;stroke:none;stroke-width:1px;stroke-linecap:butt;stroke-linejoin:miter;stroke-opacity:1;font-family:Arial"
   x="248.95163"
   y="57.772125"
   id="text2925"
   sodipodi:linespacing="125%"><tspan
     sodipodi:role="line"
     id="tspan2927"
     x="248.95163"
     y="57.772125">Pinocytose</tspan></text>

<text
   xml:space="preserve"
   style="font-size:14px;font-style:normal;font-variant:normal;font-weight:normal;font-stretch:normal;text-align:start;line-height:125%;writing-mode:lr-tb;text-anchor:start;fill:#000000;fill-opacity:1;stroke:none;stroke-width:1px;stroke-linecap:butt;stroke-linejoin:miter;stroke-opacity:1;font-family:Arial"
   x="460.45932"
   y="57.772125"
   id="text2929"
   sodipodi:linespacing="125%"><tspan
     sodipodi:role="line"
     id="tspan2931"
     x="460.45932"
     y="57.772125">Endocytose à récepteur</tspan></text>

<text
   xml:space="preserve"
   style="font-size:11px;font-style:normal;font-variant:normal;font-weight:normal;font-stretch:normal;text-align:start;line-height:125%;writing-mode:lr-tb;text-anchor:start;fill:#000000;fill-opacity:1;stroke:none;stroke-width:1px;stroke-linecap:butt;stroke-linejoin:miter;stroke-opacity:1;font-family:Arial"
   x="49.587925"
   y="214.54219"
   id="text2933"
   sodipodi:linespacing="125%"><tspan
     sodipodi:role="line"
     id="tspan2935"
     x="49.587925"
     y="214.54219">Pseudopode</tspan></text>

<text
   xml:space="preserve"
   style="font-size:11px;font-style:normal;font-variant:normal;font-weight:normal;font-stretch:normal;text-align:start;line-height:125%;writing-mode:lr-tb;text-anchor:start;fill:#d88500;fill-opacity:1;stroke:#eda900;stroke-width:0;stroke-linecap:butt;stroke-linejoin:miter;stroke-miterlimit:4;stroke-dasharray:none;stroke-opacity:1;font-family:Arial"
   x="6.071991"
   y="149.77428"
   id="text2937"
   sodipodi:linespacing="125%"><tspan
     sodipodi:role="line"
     id="tspan2939"
     x="6.071991"
     y="149.77428" /><tspan
     sodipodi:role="line"
     x="6.071991"
     y="163.52428"
     id="tspan2941">Membrane</tspan><tspan
     sodipodi:role="line"
     x="6.071991"
     y="177.27428"
     id="tspan2943">plasmique</tspan></text>

<text
   xml:space="preserve"
   style="font-size:12px;font-style:normal;font-variant:normal;font-weight:normal;font-stretch:normal;text-align:start;line-height:125%;writing-mode:lr-tb;text-anchor:start;fill:#000000;fill-opacity:1;stroke:none;stroke-width:1px;stroke-linecap:butt;stroke-linejoin:miter;stroke-opacity:1;font-family:Arial"
   x="104.23585"
   y="305.62204"
   id="text2945"
   sodipodi:linespacing="125%"><tspan
     sodipodi:role="line"
     id="tspan2947"
     x="104.23585"
     y="305.62204">     Phagosome</tspan><tspan
     sodipodi:role="line"
     x="104.23585"
     y="320.62204"
     id="tspan2949">(vacuole digestive)</tspan></text>

<text
   xml:space="preserve"
   style="font-size:14px;font-style:normal;font-variant:normal;font-weight:normal;font-stretch:normal;text-align:start;line-height:125%;writing-mode:lr-tb;text-anchor:start;fill:#d88500;fill-opacity:1;stroke:#eda900;stroke-width:0;stroke-linecap:butt;stroke-linejoin:miter;stroke-miterlimit:4;stroke-dasharray:none;stroke-opacity:1;font-family:Arial"
   x="300.56357"
   y="325.95172"
   id="text4889"
   sodipodi:linespacing="125%"><tspan
     sodipodi:role="line"
     id="tspan4891"
     x="300.56357"
     y="325.95172">Cytoplasme</tspan></text>

<text
   xml:space="preserve"
   style="font-size:14px;font-style:normal;font-variant:normal;font-weight:normal;font-stretch:normal;text-align:start;line-height:125%;writing-mode:lr-tb;text-anchor:start;fill:#5454ff;fill-opacity:1;stroke:#eda900;stroke-width:0;stroke-linecap:butt;stroke-linejoin:miter;stroke-miterlimit:4;stroke-dasharray:none;stroke-opacity:1;font-family:Arial"
   x="287.40756"
   y="76.910393"
   id="text4893"
   sodipodi:linespacing="125%"><tspan
     sodipodi:role="line"
     id="tspan4895"
     x="287.40756"
     y="76.910393">Milieu extracellulaire</tspan></text>

<text
   xml:space="preserve"
   style="font-size:12px;font-style:normal;font-variant:normal;font-weight:normal;font-stretch:normal;text-align:start;line-height:125%;writing-mode:lr-tb;text-anchor:start;fill:#000000;fill-opacity:1;stroke:none;stroke-width:1px;stroke-linecap:butt;stroke-linejoin:miter;stroke-opacity:1;font-family:Arial"
   x="364.31946"
   y="300.56204"
   id="text4897"
   sodipodi:linespacing="125%"><tspan
     sodipodi:role="line"
     id="tspan4899"
     x="364.31946"
     y="300.56204">Vésicule</tspan></text>

<text
   xml:space="preserve"
   style="font-size:12px;font-style:normal;font-variant:normal;font-weight:normal;font-stretch:normal;text-align:start;line-height:125%;writing-mode:lr-tb;text-anchor:start;fill:#000000;fill-opacity:1;stroke:none;stroke-width:1px;stroke-linecap:butt;stroke-linejoin:miter;stroke-opacity:1;font-family:Arial"
   x="609.22314"
   y="213.53018"
   id="text4901"
   sodipodi:linespacing="125%"><tspan
     sodipodi:role="line"
     id="tspan4903"
     x="609.22314"
     y="213.53018">Récepteur</tspan></text>

<text
   xml:space="preserve"
   style="font-size:12px;font-style:normal;font-variant:normal;font-weight:normal;font-stretch:normal;text-align:start;line-height:125%;writing-mode:lr-tb;text-anchor:start;fill:#000000;fill-opacity:1;stroke:none;stroke-width:1px;stroke-linecap:butt;stroke-linejoin:miter;stroke-opacity:1;font-family:Arial"
   x="517.13123"
   y="213.53018"
   id="text4905"
   sodipodi:linespacing="125%"><tspan
     sodipodi:role="line"
     id="tspan4907"
     x="517.13123"
     y="213.53018">Puits revêtu</tspan></text>

<text
   xml:space="preserve"
   style="font-size:12px;font-style:normal;font-variant:normal;font-weight:normal;font-stretch:normal;text-align:start;line-height:125%;writing-mode:lr-tb;text-anchor:start;fill:#000000;fill-opacity:1;stroke:none;stroke-width:1px;stroke-linecap:butt;stroke-linejoin:miter;stroke-opacity:1;font-family:Arial"
   x="466.53128"
   y="282.34607"
   id="text4909"
   sodipodi:linespacing="125%"><tspan
     sodipodi:role="line"
     id="tspan4911"
     x="466.53128"
     y="282.34607">Protéine de </tspan><tspan
     sodipodi:role="line"
     x="466.53128"
     y="297.34607"
     id="tspan4913">revêtement</tspan></text>

<text
   xml:space="preserve"
   style="font-size:12px;font-style:normal;font-variant:normal;font-weight:normal;font-stretch:normal;text-align:start;line-height:125%;writing-mode:lr-tb;text-anchor:start;fill:#000000;fill-opacity:1;stroke:none;stroke-width:1px;stroke-linecap:butt;stroke-linejoin:miter;stroke-opacity:1;font-family:Arial"
   x="534.33521"
   y="328.75739"
   id="text4915"
   sodipodi:linespacing="125%"><tspan
     sodipodi:role="line"
     x="534.33521"
     y="328.75739"
     id="tspan4923">Vésicule revêtue</tspan></text>

<text
   xml:space="preserve"
   style="font-size:12px;font-style:normal;font-variant:normal;font-weight:normal;font-stretch:normal;text-align:start;line-height:125%;writing-mode:lr-tb;text-anchor:start;fill:#000000;fill-opacity:1;stroke:none;stroke-width:1px;stroke-linecap:butt;stroke-linejoin:miter;stroke-opacity:1;font-family:Arial"
   x="136.6198"
   y="104.23434"
   id="text4927"
   sodipodi:linespacing="125%"><tspan
     sodipodi:role="line"
     id="tspan4929"
     x="136.6198"
     y="104.23434">Particule solide</tspan></text>

</svg>