<?xml version="1.0" encoding="UTF-8" standalone="no"?>
<!-- Created with Inkscape (http://www.inkscape.org/) -->

<svg
   xmlns:osb="http://www.openswatchbook.org/uri/2009/osb"
   xmlns:dc="http://purl.org/dc/elements/1.1/"
   xmlns:cc="http://creativecommons.org/ns#"
   xmlns:rdf="http://www.w3.org/1999/02/22-rdf-syntax-ns#"
   xmlns:svg="http://www.w3.org/2000/svg"
   xmlns="http://www.w3.org/2000/svg"
   xmlns:sodipodi="http://sodipodi.sourceforge.net/DTD/sodipodi-0.dtd"
   xmlns:inkscape="http://www.inkscape.org/namespaces/inkscape"
   width="210mm"
   height="297mm"
   viewBox="0 0 744.09448819 1052.3622047"
   id="svg2"
   version="1.1"
   inkscape:version="0.91 r13725"
   sodipodi:docname="SRF.svg"
   inkscape:export-filename="C:\Users\Lorraine\Documents\GitHub\These\Figures\SRF.png"
   inkscape:export-xdpi="90"
   inkscape:export-ydpi="90">
  <defs
     id="defs4">
    <linearGradient
       id="linearGradient5584"
       osb:paint="solid">
      <stop
         style="stop-color:#000000;stop-opacity:1;"
         offset="0"
         id="stop5586" />
    </linearGradient>
  </defs>
  <sodipodi:namedview
     id="base"
     pagecolor="#ffffff"
     bordercolor="#666666"
     borderopacity="1.0"
     inkscape:pageopacity="0.0"
     inkscape:pageshadow="2"
     inkscape:zoom="2.8"
     inkscape:cx="544.88528"
     inkscape:cy="652.17501"
     inkscape:document-units="px"
     inkscape:current-layer="layer1"
     showgrid="false"
     inkscape:window-width="1680"
     inkscape:window-height="988"
     inkscape:window-x="-8"
     inkscape:window-y="-8"
     inkscape:window-maximized="1" />
  <metadata
     id="metadata7">
    <rdf:RDF>
      <cc:Work
         rdf:about="">
        <dc:format>image/svg+xml</dc:format>
        <dc:type
           rdf:resource="http://purl.org/dc/dcmitype/StillImage" />
        <dc:title></dc:title>
      </cc:Work>
    </rdf:RDF>
  </metadata>
  <g
     inkscape:label="Layer 1"
     inkscape:groupmode="layer"
     id="layer1">
    <path
       sodipodi:type="star"
       style="opacity:1;fill:#ff13cf;fill-opacity:1;fill-rule:nonzero;stroke:#205020;stroke-width:1;stroke-linecap:butt;stroke-linejoin:miter;stroke-miterlimit:4;stroke-dasharray:none;stroke-opacity:1"
       id="path6682-52-2-6-6-5-7"
       sodipodi:sides="5"
       sodipodi:cx="556"
       sodipodi:cy="354.36221"
       sodipodi:r1="25.455845"
       sodipodi:r2="20.594212"
       sodipodi:arg1="0.78539816"
       sodipodi:arg2="1.4137167"
       inkscape:flatsided="true"
       inkscape:rounded="0"
       inkscape:randomized="0"
       d="m 574,372.36221 -29.55671,4.68133 -13.58573,-26.6635 21.16027,-21.16027 26.66349,13.58573 z"
       inkscape:transform-center-x="81.797819"
       inkscape:transform-center-y="-0.52304554"
       transform="matrix(-0.09734682,0.48444803,-0.57106919,-0.11376839,769.38583,156.95813)" />
    <rect
       style="fill:#8f4db3;fill-opacity:1;fill-rule:nonzero;stroke:#000000;stroke-width:0.32335833;stroke-linecap:butt;stroke-linejoin:miter;stroke-miterlimit:4;stroke-dasharray:none;stroke-opacity:1"
       id="rect4479-5"
       width="16.757837"
       height="43.612862"
       x="493.92941"
       y="365.47482"
       ry="7.9585519" />
    <g
       id="g4201"
       style="fill:#000000;fill-opacity:1"
       transform="matrix(0.20707805,0,0,0.22341405,464.44264,276.00397)">
      <path
         inkscape:connector-curvature="0"
         d="m 45.198919,36.596895 c 3.98165,0.0388 7.963616,0.02355 11.945389,0.01699 3.658241,0.254611 6.944968,1.924951 10.214754,3.43387 4.232088,2.237733 8.212239,4.93267 12.134549,7.669952 5.309169,4.00532 10.62359,8.007 15.923297,12.027397 3.558263,2.766016 7.240022,5.344029 10.467172,8.500107 2.47223,3.057032 4.62605,6.344464 6.96962,9.493236 2.27351,2.725728 4.01463,5.712036 5.46769,8.940172 1.31571,2.897577 2.0268,5.967144 2.88344,9.00901 0.92469,3.153311 1.35704,6.405541 1.60582,9.672281 0.17888,2.92836 0.17516,5.86357 0.17754,8.79614 0.22259,3.00127 -0.33392,5.85831 -1.21754,8.70495 -0.96994,2.88026 -2.92548,5.24246 -4.67946,7.67146 -1.76639,2.43013 -3.75032,4.67533 -5.47161,7.14165 -1.82997,2.34876 -3.75793,4.6475 -6.04477,6.56374 -1.97273,1.64721 -3.98037,3.25565 -5.905181,4.95975 -2.002997,1.82847 -4.152574,3.47283 -6.430808,4.9408 -3.26325,1.83663 -6.526499,3.67326 -9.789748,5.50988 -0.39428,0.23406 -1.582633,0.92669 -1.18284,0.70218 2.43274,-1.36615 4.839253,-2.77902 7.28197,-4.12725 2.823248,-1.55825 -2.571905,1.76898 -3.226743,2.25419 -2.731075,2.02133 -5.407861,4.11618 -8.156433,6.11386 -3.023183,2.17843 -6.019218,4.39424 -9.015006,6.61077 -2.849305,2.12369 -5.225988,4.81718 -7.452394,7.5688 -2.102865,2.85794 -4.089001,5.82447 -5.907313,8.8734 -1.812021,3.40478 -3.369499,6.93255 -5.100976,10.37553 -1.832376,3.11478 -2.69862,6.5677 -3.173756,10.11271 -0.240889,2.93121 -0.459341,5.89953 -0.15339,8.83143 0.594754,3.89614 2.476076,7.47693 4.281029,10.93377 2.263882,4.30962 5.068699,8.23934 8.0486,12.06703 1.793037,2.6731 4.044218,4.95849 6.095223,7.4202 1.764946,1.91753 3.950571,3.37063 5.995876,4.96789 2.385377,1.58022 4.662435,3.30354 7.015957,4.93416 2.970875,1.85731 5.980209,3.67324 8.940807,5.56579 4.637221,3.01742 9.002146,6.42339 13.561786,9.5512 4.28533,2.98727 8.6836,5.8083 12.95529,8.81498 3.93121,2.83418 7.8321,5.6793 11.63834,8.68262 3.13655,1.95873 5.96796,4.29931 8.80185,6.65838 3.06805,1.81272 5.4577,4.39952 8.02395,6.81577 3.11254,3.24639 6.61566,6.0429 9.46237,9.53772 2.31994,2.73067 4.62076,5.4565 6.48862,8.52183 2.05355,2.62034 3.65604,5.51635 5.40948,8.33269 1.44308,2.89512 2.52772,5.98157 3.53786,9.05569 0.76434,2.66453 0.87855,5.4361 1.41439,8.14699 0.61527,2.82379 0.85334,5.70221 0.99213,8.58238 0.10556,2.86372 0.099,5.72999 0.0992,8.59519 -0.003,2.85759 -0.007,5.71518 -0.009,8.57277 0.0244,3.01365 -1.25444,5.52708 -2.57682,8.12684 -1.42458,2.81224 -2.9977,5.56559 -4.97802,8.02535 -2.08678,2.51575 -4.32381,4.89796 -6.58918,7.25191 -2.52185,2.79831 -5.49758,5.11798 -8.47631,7.40485 -2.58174,1.73297 -5.03401,3.63382 -7.52913,5.48726 -5.10431,3.89363 -20.13417,10.90095 -3.68315,2.30784 0.41398,-0.21623 -0.75888,0.54543 -1.12282,0.83814 -0.70802,0.56945 -1.38376,1.17825 -2.09144,1.74811 -2.04725,1.83113 -4.27483,3.38944 -6.5677,4.89177 -2.15824,1.7178 -4.35385,3.39278 -6.53009,5.09199 -2.56311,1.87132 -4.81349,4.12841 -6.87827,6.52817 -1.73966,2.60555 -3.53417,5.17122 -5.23866,7.80139 -1.70546,2.68998 -3.78933,5.13778 -5.15705,8.02558 -0.60994,2.27762 -1.73063,4.32313 -2.755943,6.42199 -1.239844,2.19461 -1.837013,4.64124 -2.714498,6.98356 -0.881786,2.30095 -1.03885,4.76633 -1.666344,7.13399 -0.721682,2.42626 -0.935025,4.94589 -1.071141,7.46025 -0.06818,3.09178 -0.249908,6.19489 0.03663,9.278 0.371909,3.57538 1.327852,7.03614 2.708602,10.34646 1.103742,2.53525 2.579146,4.89381 3.988614,7.26902 1.30219,1.83471 2.57091,3.66215 3.92121,5.46695 1.97534,2.88025 3.96588,5.79964 6.36957,8.34473 2.33087,1.9511 5.29327,2.95814 8.0453,4.19884 2.72874,1.38645 5.18901,3.27784 7.61003,5.14143 2.0294,1.40537 3.8571,3.0828 5.88522,4.49453 2.03543,1.63473 4.23935,2.92921 6.1951,4.67497 2.48031,1.84884 4.79618,3.88064 7.15344,5.87705 2.22698,1.598 4.10486,3.60999 6.19634,5.37136 2.05869,2.37088 4.00854,4.82585 5.99075,7.26135 2.60521,3.23753 4.82791,6.78337 7.1777,10.21571 2.64839,3.57785 5.0378,7.30211 7.17885,11.19994 1.55122,3.01826 2.76562,6.13713 3.87924,9.33312 0.87098,3.19437 1.58273,6.43314 2.32079,9.66285 0.73607,3.66764 0.82591,7.41069 0.91058,11.13675 0.0673,3.84574 0.0611,7.69243 0.0496,11.53863 -0.0281,4.19135 -0.0187,8.38277 -0.009,12.57416 0.10401,3.74494 -0.58454,7.44021 -1.39537,11.07743 -0.66498,3.25148 -1.62109,6.43593 -2.72477,9.56257 -0.72578,2.91337 -2.07912,5.53683 -3.65286,8.06643 -2.01204,2.96783 -4.53832,5.52314 -6.7041,8.37116 -1.7947,2.41951 -4.02461,4.47282 -6.43968,6.25691 -5.08011,3.89845 -20.36994,11.30217 -4.03113,2.56315 0.87916,-0.47023 -1.5694,1.23913 -2.42531,1.75045 -3.20068,1.91212 -6.44379,3.75233 -9.66568,5.62849 2.44631,-1.39208 4.88189,-2.8032 7.33893,-4.17625 0.36557,-0.20429 -0.69948,0.46173 -1.06323,0.66924 -3.18446,1.81669 -6.37923,3.61536 -9.58026,5.40269 -5.62659,3.14167 10.68695,-6.68459 5.05443,-2.74886 -21.69336,12.56184 -6.64591,3.76131 -2.94247,1.88552 1.02595,-0.51965 -1.83234,1.3992 -2.82241,1.98434 -3.31552,1.95949 -6.71272,3.78099 -9.99565,5.79459 -2.26269,1.38782 4.62236,-2.61096 6.93354,-3.91644 -5.51681,3.49363 -11.08577,6.95687 -16.95407,9.83223 2.32356,-1.32243 4.64238,-2.65322 6.97068,-3.96729 0.9493,-0.53578 -1.86245,1.13352 -2.80459,1.68179 -3.26413,1.89953 -6.5888,3.69674 -9.81032,5.66767 -2.35733,1.44222 4.79365,-2.75186 7.21663,-4.08084 0.40028,-0.21955 -0.76363,0.50058 -1.14545,0.75087 -2.07476,1.45765 -4.03996,3.05621 -6.10048,4.54073 -2.29871,1.71649 -4.49638,3.5447 -6.62202,5.47042 -2.83721,2.80902 -5.58044,5.71192 -8.046023,8.85473 -2.020124,2.74224 -4.257301,5.29454 -5.761742,8.36845 -1.017318,3.00188 -2.415382,5.82988 -3.25652,8.89 -0.862745,3.75599 -0.919918,7.63542 -0.995033,11.4711 -0.03885,3.14582 -0.01635,6.29198 -0.0047,9.43791 -0.125994,3.32292 0.695205,6.52269 1.76627,9.63461 2.021028,5.9218 4.32085,11.72797 6.856389,17.44712 3.136129,6.56177 6.701499,12.93352 10.971599,18.82451 3.34888,5.10499 7.26073,9.78741 10.98328,14.61138 2.3587,3.40227 4.93131,6.67082 7.21418,10.12348 3.08128,4.03296 6.78447,7.51226 10.23799,11.2173 2.8642,3.24396 5.86426,6.37079 8.61394,9.71442 1.91056,2.74551 4.05918,5.31625 6.01358,8.02956 2.18157,2.97201 4.25182,6.02067 6.37683,9.03365 2.65818,4.76927 5.43047,9.47921 8.02853,14.28323 2.19614,5.05066 4.32178,10.13579 6.38662,15.24326 1.45835,3.63401 2.58003,7.34338 3.22527,11.20485 0.88552,4.09352 1.35404,8.25549 1.6401,12.42879 0.22691,4.23473 0.24591,8.47605 0.26715,12.71557 0.19974,3.85315 -0.15782,7.59502 -1.37293,11.25429 -1.51477,4.79493 -3.53033,9.39742 -5.2694,14.10777 -1.32435,3.42782 -2.68074,6.84065 -4.01647,10.26358 -0.95507,2.47825 -2.11296,4.88651 -3.37195,7.2254 -1.15921,2.20625 -2.5176,4.27138 -4.07119,6.21631 -2.10893,2.65852 -4.6514,4.97749 -7.35945,7.01121 -3.49326,2.59778 -6.89093,5.32787 -10.11705,8.25174 -2.64478,2.44614 -5.49767,4.63445 -8.48887,6.63257 -4.18667,3.45012 -9.50888,5.04992 -14.0556,7.84092 0,0 7.69422,-6.21537 7.69422,-6.21537 l 0,0 c 2.38522,-1.22037 -0.18582,0.0765 2.30048,-1.11876 0.38596,-0.18554 1.51587,-0.79549 1.14931,-0.57409 -2.07777,1.2549 -10.67209,6.28962 -6.28251,3.68202 2.93042,-2.08964 5.99615,-4.00071 8.60285,-6.52702 3.16986,-2.99747 6.61252,-5.67995 10.04751,-8.36472 2.77772,-1.83167 5.26029,-4.21054 7.42506,-6.72952 1.50633,-1.93822 3.01647,-3.83881 4.12528,-6.04768 1.23225,-2.33967 2.51049,-4.67029 3.45424,-7.14543 1.39965,-3.40346 2.66688,-6.86095 4.08145,-10.2605 1.70484,-4.71281 3.83722,-9.25544 5.24471,-14.07991 1.29745,-3.54776 1.75761,-7.17647 1.52348,-10.95827 4.3e-4,-4.22299 -0.008,-8.44863 -0.22305,-12.66722 -0.27006,-4.14241 -0.68702,-8.28029 -1.63044,-12.3317 -0.58306,-3.80894 -1.67613,-7.45149 -3.07165,-11.04214 -1.99974,-5.09498 -4.13183,-10.14019 -6.28341,-15.17099 -2.57613,-4.76713 -5.36762,-9.42108 -8.02741,-14.14033 -2.17545,-2.9786 -4.2179,-6.04555 -6.40762,-9.01317 -1.94425,-2.69537 -4.10844,-5.22896 -5.98506,-7.97484 -2.72508,-3.32871 -5.65303,-6.48749 -8.49835,-9.71167 -3.49335,-3.74466 -7.28793,-7.21703 -10.36753,-11.32683 -2.28685,-3.42515 -4.86925,-6.65584 -7.16922,-10.07504 -3.67731,-4.86439 -7.53791,-9.5927 -10.907632,-14.68643 -4.290032,-5.95787 -7.89794,-12.38152 -11.050981,-19.00918 -2.566652,-5.72643 -4.930725,-11.52753 -7.038476,-17.4397 -1.126247,-3.20045 -2.065984,-6.46838 -1.9588,-9.90255 -0.0074,-3.15784 -0.02206,-6.31592 0.02435,-9.47355 0.08093,-3.89756 0.132656,-7.83673 0.883146,-11.67317 0.772817,-3.14097 2.178653,-5.97558 3.170443,-9.0421 1.388379,-3.20653 3.598171,-5.80364 5.690342,-8.57323 2.398434,-3.24522 5.22619,-6.12205 8.014185,-9.02818 2.084741,-1.95651 4.244933,-3.80009 6.483793,-5.56775 2.14283,-1.39572 4.08854,-3.02071 6.10809,-4.57545 5.37476,-3.38341 19.53477,-11.31708 3.75624,-2.35814 -0.95065,0.53977 1.85797,-1.15323 2.80442,-1.70033 3.30298,-1.90932 6.60534,-3.81972 9.908,-5.72957 3.83527,-1.96541 2.77222,-1.45695 -5.48841,3.31887 -0.46592,0.26936 0.91473,-0.56751 1.37873,-0.84018 3.55666,-2.09017 -0.80252,0.57574 2.77819,-1.70344 0.47039,-0.2994 0.95059,-0.58308 1.42589,-0.87462 32.30442,-19.13846 -7.78346,4.69459 5.90467,-3.817 3.26027,-2.02731 6.63065,-3.8773 9.8522,-5.96559 2.25147,-1.45945 -4.62665,2.71854 -6.93998,4.07782 4.07917,-2.95703 1.44712,-1.10626 10.6973,-6.46741 0.37438,-0.21698 1.53226,-0.80273 1.16186,-0.57902 -2.44127,1.4744 -4.91854,2.88834 -7.37753,4.33299 -0.36075,0.21193 0.72186,-0.42325 1.08279,-0.63487 3.18055,-1.87907 6.3611,-3.75814 9.54165,-5.6372 -2.39766,1.40112 -4.77448,2.83852 -7.19298,4.20336 -0.87123,0.49167 1.56507,-1.25496 2.41799,-1.77775 3.19943,-1.96106 6.49095,-3.76912 9.69099,-5.7292 1.84306,-1.1289 -11.14639,6.6838 -5.64667,3.18698 2.48612,-1.62099 4.68899,-3.66651 6.57127,-5.95972 2.07178,-2.9134 4.62482,-5.42102 6.73837,-8.30364 1.54548,-2.47641 3.0759,-4.97023 3.72921,-7.85757 1.05259,-3.12004 2.1832,-6.22745 2.7994,-9.47712 0.81203,-3.57071 1.58397,-7.19957 1.49134,-10.88236 0.0138,-4.19259 0.0294,-8.38519 0.0138,-12.5778 -0.001,-3.841 0.0214,-7.68219 -0.0304,-11.52299 -0.0756,-3.65927 -0.16734,-7.33764 -0.85462,-10.94409 -0.70918,-3.19782 -1.43792,-6.39433 -2.27385,-9.55837 -1.1078,-3.14031 -2.21897,-6.24789 -3.76481,-9.21368 -2.10717,-3.8799 -4.45321,-7.58841 -7.10981,-11.12299 -2.35385,-3.39877 -4.54374,-6.9341 -7.15833,-10.13332 -1.95729,-2.38468 -3.89902,-4.77701 -5.94956,-7.0827 -2.05435,-1.79497 -3.97299,-3.75056 -6.1676,-5.3795 -2.37112,-1.99254 -4.69675,-4.02539 -7.17805,-5.88396 -1.95109,-1.67988 -4.15233,-2.95806 -6.14018,-4.5884 -2.01407,-1.44966 -3.89617,-3.07125 -5.90858,-4.5206 -2.38757,-1.7997 -4.74298,-3.71025 -7.47254,-4.96736 -2.85023,-1.31163 -5.93149,-2.32902 -8.23668,-4.53704 -2.38919,-2.60369 -4.426453,-5.51848 -6.445498,-8.41094 -1.412679,-1.8114 -2.686863,-3.67676 -4.00131,-5.556 -1.423307,-2.42053 -2.894726,-4.8361 -4.00095,-7.42038 -1.407011,-3.39338 -2.471453,-6.92303 -2.862521,-10.58784 -0.359398,-3.11777 -0.164193,-6.26686 -0.127933,-9.40055 0.111519,-2.56989 0.268912,-5.15566 0.960713,-7.64726 0.677937,-2.39042 0.87842,-4.84511 1.630831,-7.21775 0.887878,-2.35483 1.474816,-4.81408 2.676521,-7.04003 0.91409,-2.15303 2.333355,-4.07231 2.784485,-6.42012 1.228737,-3.0192 3.343233,-5.47654 5.119615,-8.18418 1.721927,-2.64711 3.525907,-5.21903 5.187447,-7.90181 1.97405,-2.49151 4.2421,-4.82289 6.80433,-6.71024 2.11321,-1.77865 4.46374,-3.25924 6.4535,-5.18969 2.34726,-1.41193 4.61645,-2.9269 6.60821,-4.82325 1.15138,-0.79073 2.02825,-1.86219 3.21478,-2.59338 7.8809,-4.85646 15.85306,-9.37732 2.43357,-1.53588 -0.42398,0.24775 0.83786,-0.51238 1.25679,-0.76857 2.50094,-1.86399 4.92603,-3.80548 7.5491,-5.49518 3.03124,-2.18529 5.98738,-4.52958 8.54309,-7.25841 2.26292,-2.3373 4.51249,-4.69098 6.59337,-7.19425 2.12214,-2.29028 3.59715,-5.04917 5.05542,-7.78716 1.21635,-2.52505 2.76952,-4.78687 2.78137,-7.72218 0.002,-2.85744 0.006,-5.71489 0.009,-8.57233 0.001,-2.85188 0.0103,-5.70457 -0.0787,-8.55541 -0.11903,-2.83357 -0.32138,-5.66918 -0.92265,-8.44825 -0.54517,-2.67691 -0.69841,-5.39454 -1.36346,-8.04625 -0.95339,-3.00841 -1.99518,-6.03149 -3.40084,-8.85486 -1.75972,-2.81513 -3.35738,-5.71683 -5.39286,-8.35303 -1.84876,-3.01827 -4.17669,-5.67502 -6.40212,-8.41787 -2.82109,-3.45287 -6.31002,-6.21874 -9.396,-9.42542 -2.56541,-2.39908 -5.02713,-4.87369 -8.03287,-6.7418 -2.82172,-2.35172 -5.65142,-4.66469 -8.73719,-6.67171 -3.77367,-3.01473 -7.69098,-5.80904 -11.60273,-8.63881 -4.26159,-3.00605 -8.645649,-5.83403 -12.911859,-8.83354 -4.527287,-3.1683 -8.937419,-6.50733 -13.600276,-9.47951 -2.990167,-1.88363 -6.048231,-3.6613 -9.012215,-5.57466 -2.343957,-1.66708 -4.682203,-3.33035 -7.045415,-4.96779 -2.117476,-1.61201 -4.329539,-3.14776 -6.098192,-5.15681 -2.06893,-2.46293 -4.295026,-4.78215 -6.084283,-7.47263 -2.974893,-3.89909 -5.758911,-7.90468 -8.067458,-12.24699 -1.905776,-3.52913 -3.88643,-7.20005 -4.557728,-11.19502 -0.40222,-2.99768 -0.142007,-6.04568 0.05782,-9.05421 0.433841,-3.63302 1.196787,-7.24043 3.056905,-10.44226 1.827738,-3.39938 3.267057,-6.99854 5.073911,-10.41356 1.758078,-3.10899 3.800109,-6.0655 5.83907,-8.99217 2.155987,-2.84179 4.585052,-5.56342 7.358624,-7.8109 2.974752,-2.25308 6.018886,-4.41079 9.013133,-6.63712 2.777846,-1.92284 5.405534,-4.05643 8.105971,-6.08506 4.255062,-2.99307 7.940549,-5.11234 12.825371,-7.97518 1.985266,-1.1635 11.586421,-5.6445 -5.915147,3.55896 2.327431,-1.35519 4.431215,-2.9971 6.480176,-4.73975 1.825714,-1.83956 3.985085,-3.29934 5.888628,-5.06018 2.423166,-1.71437 4.236504,-4.06019 6.167914,-6.28596 1.70969,-2.48382 3.58995,-4.80142 5.47106,-7.14888 1.65844,-2.41971 3.69868,-4.64259 4.80153,-7.39434 0.88871,-2.76111 1.61246,-5.49157 1.34575,-8.43103 10e-4,-2.9129 0.012,-5.82788 -0.13748,-8.73788 -0.21303,-3.20523 -0.59002,-6.4036 -1.5088,-9.49433 -0.85667,-2.99305 -1.51744,-6.029931 -2.81049,-8.887581 -1.40605,-3.170087 -3.1239,-6.085452 -5.32342,-8.776578 -2.29876,-3.117461 -4.471884,-6.3262 -6.905242,-9.346014 C 94.299203,70.299515 90.687764,67.698024 87.200031,64.93304 81.93032,60.893762 76.616395,56.907183 71.278557,52.96051 67.352765,50.295148 63.406103,47.611762 59.158711,45.4796 c -3.17335,-1.46797 -6.410561,-2.984269 -9.973124,-3.083364 -3.997366,-0.0066 -7.994916,-0.02155 -11.992162,0.01699 0,0 8.005494,-5.816332 8.005494,-5.816332 z"
         id="path4184"
         style="fill:#000000;fill-opacity:1;fill-rule:nonzero;stroke:#000000;stroke-width:5;stroke-linecap:butt;stroke-linejoin:miter;stroke-miterlimit:1;stroke-dasharray:none;stroke-opacity:1" />
      <path
         inkscape:connector-curvature="0"
         d="m 41.744132,93.539327 c 3.98165,0.0388 7.963616,0.0236 11.945389,0.017 3.658241,0.25461 6.944968,1.92495 10.214752,3.43387 4.23209,2.23773 8.21224,4.932673 12.13455,7.669953 5.30917,4.00532 10.62359,8.007 15.9233,12.0274 3.55826,2.76601 7.24002,5.34402 10.467167,8.5001 2.47223,3.05703 4.62605,6.34447 6.96962,9.49324 2.27351,2.72573 4.01463,5.71203 5.46769,8.94017 1.31571,2.89758 2.0268,5.96714 2.88344,9.00901 0.92469,3.15331 1.35704,6.40554 1.60582,9.67228 0.17888,2.92836 0.17516,5.86357 0.17754,8.79614 0.22259,3.00127 -0.33392,5.85831 -1.21754,8.70495 -0.96994,2.88026 -2.92548,5.24246 -4.67946,7.67146 -1.76639,2.43013 -3.75032,4.67534 -5.47161,7.14166 -1.82997,2.34876 -3.75793,4.6475 -6.04477,6.56374 -1.97273,1.64721 -3.980367,3.25565 -5.905177,4.95975 -2.003,1.82847 -4.15257,3.47283 -6.43081,4.9408 -3.26325,1.83663 -6.5265,3.67326 -9.78975,5.50988 -0.39428,0.23406 -1.58263,0.92669 -1.18284,0.70218 2.43274,-1.36615 4.83926,-2.77902 7.28197,-4.12725 2.82325,-1.55825 -2.5719,1.76898 -3.22674,2.25419 -2.73107,2.02133 -5.40786,4.11618 -8.15643,6.11386 -3.02319,2.17843 -6.01922,4.39424 -9.01501,6.61077 -2.849304,2.12369 -5.225987,4.81718 -7.452393,7.5688 -2.102865,2.85794 -4.089001,5.82447 -5.907313,8.8734 -1.812021,3.40478 -3.369499,6.93255 -5.100976,10.37553 -1.832376,3.11478 -2.69862,6.5677 -3.173756,10.11271 -0.240889,2.93121 -0.459341,5.89953 -0.15339,8.83143 0.594754,3.89614 2.476076,7.47693 4.281029,10.93377 2.263882,4.30962 5.068699,8.23934 8.0486,12.06703 1.793037,2.6731 4.044218,4.95849 6.095223,7.4202 1.764946,1.91753 3.950576,3.37063 5.995876,4.96789 2.38538,1.58022 4.66244,3.30354 7.01596,4.93416 2.97087,1.85731 5.98021,3.67324 8.9408,5.56579 4.63723,3.01742 9.00215,6.42339 13.56179,9.5512 4.285327,2.98727 8.683597,5.8083 12.955287,8.81498 3.93121,2.83418 7.8321,5.6793 11.63834,8.68262 3.13655,1.95873 5.96796,4.29931 8.80185,6.65838 3.06805,1.81272 5.4577,4.39952 8.02395,6.81577 3.11254,3.24639 6.61566,6.0429 9.46237,9.53772 2.31994,2.73067 4.62076,5.4565 6.48862,8.52183 2.05355,2.62034 3.65604,5.51635 5.40948,8.33269 1.44308,2.89511 2.52772,5.98156 3.53786,9.05568 0.76434,2.66453 0.87855,5.4361 1.41439,8.14699 0.61527,2.82379 0.85334,5.70221 0.99213,8.58238 0.10556,2.86372 0.099,5.72999 0.0992,8.59519 -0.003,2.85759 -0.007,5.71518 -0.009,8.57277 0.0244,3.01365 -1.25444,5.52708 -2.57682,8.12684 -1.42458,2.81224 -2.9977,5.56559 -4.97802,8.02535 -2.08678,2.51575 -4.32381,4.89796 -6.58918,7.25191 -2.52185,2.79831 -5.49758,5.11798 -8.47631,7.40485 -2.58174,1.73297 -5.03401,3.63382 -7.52913,5.48726 -5.10431,3.89363 -20.13417,10.90095 -3.68315,2.30784 0.41398,-0.21623 -0.75888,0.54543 -1.12282,0.83814 -0.70802,0.56945 -1.38376,1.17825 -2.09144,1.74811 -2.04725,1.83113 -4.27483,3.38944 -6.5677,4.89177 -2.15824,1.7178 -4.35385,3.39278 -6.53009,5.09199 -2.56311,1.87132 -4.81349,4.12841 -6.87827,6.52817 -1.73966,2.60555 -3.53417,5.17122 -5.23866,7.80139 -1.70546,2.68998 -3.78933,5.13778 -5.157047,8.02558 -0.60994,2.27762 -1.73063,4.32313 -2.75594,6.42199 -1.23985,2.19461 -1.83702,4.64124 -2.7145,6.98356 -0.88179,2.30095 -1.03885,4.76633 -1.66634,7.13399 -0.72169,2.42626 -0.93503,4.94589 -1.07115,7.46025 -0.0682,3.09178 -0.2499,6.19489 0.0366,9.278 0.37191,3.57538 1.32786,7.03614 2.70861,10.34646 1.10374,2.53525 2.57914,4.89381 3.98861,7.26902 1.30219,1.83471 2.570907,3.66215 3.921207,5.46695 1.97534,2.88025 3.96588,5.79964 6.36957,8.34473 2.33087,1.9511 5.29327,2.95814 8.0453,4.19884 2.72874,1.38645 5.18901,3.27784 7.61003,5.14143 2.0294,1.40537 3.8571,3.0828 5.88522,4.49453 2.03543,1.63474 4.23935,2.92922 6.1951,4.67498 2.48031,1.84884 4.79618,3.88064 7.15344,5.87705 2.22698,1.598 4.10486,3.60999 6.19634,5.37136 2.05869,2.37088 4.00854,4.82585 5.99075,7.26135 2.60521,3.23753 4.82791,6.78337 7.1777,10.21571 2.64839,3.57785 5.0378,7.30211 7.17885,11.19994 1.55122,3.01826 2.76562,6.13713 3.87924,9.33312 0.87098,3.19437 1.58273,6.43314 2.32079,9.66285 0.73607,3.66764 0.82591,7.41069 0.91058,11.13675 0.0673,3.84574 0.0611,7.69243 0.0496,11.53863 -0.0281,4.19135 -0.0187,8.38277 -0.009,12.57416 0.10401,3.74494 -0.58454,7.44021 -1.39537,11.07743 -0.66498,3.25148 -1.62109,6.43593 -2.72477,9.56257 -0.72578,2.91337 -2.07912,5.53683 -3.65286,8.06643 -2.01204,2.96783 -4.53832,5.52314 -6.7041,8.37116 -1.7947,2.41951 -4.02461,4.47282 -6.43968,6.25691 -5.08011,3.89845 -20.36994,11.30217 -4.03113,2.56315 0.87916,-0.47023 -1.5694,1.23913 -2.42531,1.75045 -3.20068,1.91212 -6.44379,3.75233 -9.66568,5.62849 2.44631,-1.39208 4.88189,-2.8032 7.33893,-4.17625 0.36557,-0.20429 -0.69948,0.46173 -1.06323,0.66924 -3.18446,1.81669 -6.37923,3.61536 -9.58026,5.40269 -5.62659,3.14167 10.68695,-6.68459 5.05443,-2.74886 -21.69336,12.56184 -6.64591,3.76131 -2.94247,1.88552 1.02595,-0.51965 -1.83234,1.3992 -2.82241,1.98434 -3.31552,1.95949 -6.71272,3.78099 -9.99565,5.79459 -2.26269,1.38782 4.62236,-2.61096 6.93354,-3.91644 -5.51681,3.49363 -11.08577,6.95687 -16.95407,9.83223 2.32356,-1.32243 4.64238,-2.65322 6.97068,-3.96729 0.9493,-0.53578 -1.86245,1.13352 -2.80459,1.68179 -3.26413,1.89953 -6.5888,3.69674 -9.81032,5.66767 -2.35733,1.44222 4.79365,-2.75186 7.21663,-4.08084 0.40028,-0.21955 -0.76363,0.50058 -1.14545,0.75087 -2.07476,1.45765 -4.03996,3.05621 -6.10048,4.54073 -2.29871,1.71649 -4.49638,3.5447 -6.62202,5.47042 -2.83721,2.80902 -5.580437,5.71192 -8.046017,8.85473 -2.02013,2.74224 -4.2573,5.29454 -5.76174,8.36845 -1.01732,3.00188 -2.41539,5.82988 -3.25652,8.89 -0.86275,3.75599 -0.91992,7.63542 -0.99504,11.4711 -0.0388,3.14582 -0.0163,6.29198 -0.005,9.43791 -0.12599,3.32292 0.69521,6.52269 1.76627,9.63461 2.02103,5.9218 4.32085,11.72797 6.85639,17.44712 3.13613,6.56177 6.701497,12.93352 10.971597,18.82451 3.34888,5.10499 7.26073,9.78741 10.98328,14.61138 2.3587,3.40227 4.93131,6.67082 7.21418,10.12348 3.08128,4.03296 6.78447,7.51226 10.23799,11.2173 2.8642,3.24396 5.86426,6.37079 8.61394,9.71442 1.91056,2.74551 4.05918,5.31625 6.01358,8.02956 2.18157,2.97201 4.25182,6.02067 6.37683,9.03365 2.65818,4.76927 5.43047,9.47921 8.02853,14.28323 2.19614,5.05066 4.32178,10.13579 6.38662,15.24326 1.45835,3.63401 2.58003,7.34338 3.22527,11.20485 0.88552,4.09352 1.35404,8.25549 1.6401,12.42879 0.22691,4.23473 0.24591,8.47605 0.26715,12.71557 0.19974,3.85315 -0.15782,7.59502 -1.37293,11.25429 -1.51477,4.79495 -3.53033,9.39745 -5.2694,14.10775 -1.32435,3.4278 -2.68074,6.8407 -4.01647,10.2636 -0.95507,2.4782 -2.11296,4.8865 -3.37195,7.2254 -1.15921,2.2062 -2.5176,4.2714 -4.07119,6.2163 -2.10893,2.6585 -4.6514,4.9775 -7.35945,7.0112 -3.49326,2.5978 -6.89093,5.3279 -10.11705,8.2518 -2.64478,2.4461 -5.49767,4.6344 -8.48887,6.6325 -4.18667,3.4501 -9.50888,5.0499 -14.0556,7.8409 0,0 7.69422,-6.2153 7.69422,-6.2153 l 0,0 c 2.38522,-1.2204 -0.18582,0.077 2.30048,-1.1188 0.38596,-0.1855 1.51587,-0.7955 1.14931,-0.5741 -2.07777,1.2549 -10.67209,6.2896 -6.28251,3.682 2.93042,-2.0896 5.99615,-4.0007 8.60285,-6.527 3.16986,-2.9974 6.61252,-5.6799 10.04751,-8.3647 2.77772,-1.8317 5.26029,-4.2105 7.42506,-6.7295 1.50633,-1.9382 3.01647,-3.8388 4.12528,-6.0477 1.23225,-2.3397 2.51049,-4.6703 3.45424,-7.1454 1.39965,-3.4035 2.66688,-6.861 4.08145,-10.2605 1.70484,-4.7128 3.83722,-9.2555 5.24471,-14.07993 1.29745,-3.54776 1.75761,-7.17647 1.52348,-10.95827 4.3e-4,-4.22299 -0.008,-8.44863 -0.22305,-12.66722 -0.27006,-4.14241 -0.68702,-8.28029 -1.63044,-12.3317 -0.58306,-3.80894 -1.67613,-7.45149 -3.07165,-11.04214 -1.99974,-5.09498 -4.13183,-10.14019 -6.28341,-15.17099 -2.57613,-4.76713 -5.36762,-9.42108 -8.02741,-14.14033 -2.17545,-2.9786 -4.2179,-6.04555 -6.40762,-9.01317 -1.94425,-2.69537 -4.10844,-5.22896 -5.98506,-7.97484 -2.72508,-3.32871 -5.65303,-6.48749 -8.49835,-9.71167 -3.49335,-3.74466 -7.28793,-7.21703 -10.36753,-11.32683 -2.28685,-3.42515 -4.86925,-6.65584 -7.16922,-10.07504 -3.67731,-4.86439 -7.537907,-9.5927 -10.907627,-14.68643 -4.29003,-5.95787 -7.89794,-12.38152 -11.05098,-19.00918 -2.56665,-5.72643 -4.93073,-11.52753 -7.03848,-17.4397 -1.12625,-3.20045 -2.06598,-6.46838 -1.9588,-9.90255 -0.007,-3.15784 -0.0221,-6.31592 0.0244,-9.47355 0.0809,-3.89756 0.13266,-7.83673 0.88315,-11.67317 0.77281,-3.14097 2.17865,-5.97558 3.17044,-9.0421 1.38838,-3.20653 3.59817,-5.80364 5.69034,-8.57323 2.39844,-3.24522 5.22619,-6.12205 8.01419,-9.02818 2.08474,-1.95651 4.24493,-3.80009 6.483787,-5.56775 2.14283,-1.39572 4.08854,-3.02071 6.10809,-4.57545 5.37476,-3.38341 19.53477,-11.31708 3.75624,-2.35814 -0.95065,0.53977 1.85797,-1.15323 2.80442,-1.70033 3.30298,-1.90932 6.60534,-3.81972 9.908,-5.72957 3.83527,-1.96541 2.77222,-1.45695 -5.48841,3.31887 -0.46592,0.26936 0.91473,-0.56751 1.37873,-0.84018 3.55666,-2.09017 -0.80252,0.57574 2.77819,-1.70344 0.47039,-0.2994 0.95059,-0.58308 1.42589,-0.87462 32.30442,-19.13846 -7.78346,4.69459 5.90467,-3.817 3.26027,-2.02731 6.63065,-3.8773 9.8522,-5.96559 2.25147,-1.45945 -4.62665,2.71854 -6.93998,4.07782 4.07917,-2.95703 1.44712,-1.10626 10.6973,-6.46741 0.37438,-0.21698 1.53226,-0.80273 1.16186,-0.57902 -2.44127,1.4744 -4.91854,2.88834 -7.37753,4.33299 -0.36075,0.21193 0.72186,-0.42325 1.08279,-0.63487 3.18055,-1.87907 6.3611,-3.75814 9.54165,-5.6372 -2.39766,1.40112 -4.77448,2.83852 -7.19298,4.20336 -0.87123,0.49167 1.56507,-1.25496 2.41799,-1.77775 3.19943,-1.96106 6.49095,-3.76912 9.69099,-5.7292 1.84306,-1.1289 -11.14639,6.6838 -5.64667,3.18698 2.48612,-1.62099 4.68899,-3.66651 6.57127,-5.95972 2.07178,-2.9134 4.62482,-5.42102 6.73837,-8.30364 1.54548,-2.47641 3.0759,-4.97023 3.72921,-7.85757 1.05259,-3.12004 2.1832,-6.22745 2.7994,-9.47712 0.81203,-3.57071 1.58397,-7.19957 1.49134,-10.88236 0.0138,-4.19259 0.0294,-8.38519 0.0138,-12.5778 -0.001,-3.841 0.0214,-7.68219 -0.0304,-11.52299 -0.0756,-3.65927 -0.16734,-7.33764 -0.85462,-10.94409 -0.70918,-3.19782 -1.43792,-6.39433 -2.27385,-9.55837 -1.1078,-3.14031 -2.21897,-6.24789 -3.76481,-9.21368 -2.10717,-3.8799 -4.45321,-7.58841 -7.10981,-11.12299 -2.35385,-3.39877 -4.54374,-6.9341 -7.15833,-10.13332 -1.95729,-2.38468 -3.89902,-4.77701 -5.94956,-7.0827 -2.05435,-1.79497 -3.97299,-3.75056 -6.1676,-5.3795 -2.37112,-1.99254 -4.69675,-4.02539 -7.17805,-5.88396 -1.95109,-1.67988 -4.15233,-2.95806 -6.14018,-4.5884 -2.01407,-1.44966 -3.89617,-3.07125 -5.90858,-4.52061 -2.38757,-1.7997 -4.74298,-3.71025 -7.47254,-4.96736 -2.85023,-1.31163 -5.93149,-2.32902 -8.236677,-4.53704 -2.38919,-2.60369 -4.42645,-5.51848 -6.4455,-8.41094 -1.41268,-1.8114 -2.68686,-3.67676 -4.00131,-5.556 -1.4233,-2.42053 -2.89472,-4.8361 -4.00095,-7.42038 -1.40701,-3.39338 -2.47145,-6.92303 -2.86252,-10.58784 -0.3594,-3.11777 -0.16419,-6.26686 -0.12793,-9.40055 0.11152,-2.56989 0.26891,-5.15566 0.96071,-7.64726 0.67794,-2.39042 0.87842,-4.84511 1.63083,-7.21775 0.88788,-2.35483 1.47482,-4.81408 2.67652,-7.04003 0.91409,-2.15303 2.33336,-4.07231 2.78449,-6.42012 1.22874,-3.0192 3.34323,-5.47654 5.11961,-8.18418 1.72193,-2.64711 3.52591,-5.21903 5.187447,-7.90181 1.97405,-2.49151 4.2421,-4.82289 6.80433,-6.71024 2.11321,-1.77865 4.46374,-3.25924 6.4535,-5.18969 2.34726,-1.41193 4.61645,-2.9269 6.60821,-4.82325 1.15138,-0.79073 2.02825,-1.86219 3.21478,-2.59338 7.8809,-4.85646 15.85306,-9.37732 2.43357,-1.53588 -0.42398,0.24775 0.83786,-0.51238 1.25679,-0.76857 2.50094,-1.86399 4.92603,-3.80548 7.5491,-5.49518 3.03124,-2.18529 5.98738,-4.52958 8.54309,-7.25841 2.26292,-2.3373 4.51249,-4.69098 6.59337,-7.19425 2.12214,-2.29028 3.59715,-5.04917 5.05542,-7.78716 1.21635,-2.52505 2.76952,-4.78687 2.78137,-7.72218 0.002,-2.85744 0.006,-5.71489 0.009,-8.57233 0.001,-2.85188 0.0103,-5.70457 -0.0787,-8.55541 -0.11903,-2.83357 -0.32138,-5.66918 -0.92265,-8.44825 -0.54517,-2.67691 -0.69841,-5.39454 -1.36346,-8.04625 -0.95339,-3.00841 -1.99518,-6.03149 -3.40084,-8.85486 -1.75972,-2.81513 -3.35738,-5.71682 -5.39286,-8.35302 -1.84876,-3.01827 -4.17669,-5.67502 -6.40212,-8.41787 -2.82109,-3.45287 -6.31002,-6.21874 -9.396,-9.42542 -2.56541,-2.39908 -5.02713,-4.87369 -8.03287,-6.7418 -2.82172,-2.35172 -5.65142,-4.66469 -8.73719,-6.67171 -3.77367,-3.01473 -7.69098,-5.80904 -11.60273,-8.63881 -4.261587,-3.00605 -8.645647,-5.83403 -12.911857,-8.83354 -4.52729,-3.1683 -8.93742,-6.50733 -13.60027,-9.47951 -2.99017,-1.88363 -6.04824,-3.6613 -9.01222,-5.57466 -2.34396,-1.66708 -4.682203,-3.33035 -7.045415,-4.96779 -2.117476,-1.61201 -4.329539,-3.14776 -6.098192,-5.15681 -2.06893,-2.46293 -4.295026,-4.78215 -6.084283,-7.47263 -2.974893,-3.89909 -5.758911,-7.90468 -8.067458,-12.24699 -1.905776,-3.52913 -3.88643,-7.20005 -4.557728,-11.19502 -0.40222,-2.99768 -0.142007,-6.04568 0.05782,-9.05421 0.433841,-3.63302 1.196787,-7.24043 3.056905,-10.44226 1.827738,-3.39938 3.267057,-6.99854 5.073911,-10.41356 1.758078,-3.10899 3.800109,-6.0655 5.83907,-8.99217 2.155987,-2.84179 4.585052,-5.56342 7.358624,-7.8109 2.974752,-2.25308 6.018886,-4.41079 9.013136,-6.63712 2.77784,-1.92284 5.40553,-4.05643 8.10597,-6.08506 4.25506,-2.99307 7.94055,-5.11234 12.82537,-7.97518 1.98527,-1.1635 11.58642,-5.6445 -5.91515,3.55896 2.32743,-1.35519 4.43122,-2.9971 6.48018,-4.73975 1.82571,-1.83956 3.98508,-3.29934 5.88863,-5.06018 2.42316,-1.71437 4.2365,-4.06019 6.16791,-6.28596 1.709687,-2.48382 3.589947,-4.80142 5.471057,-7.14888 1.65844,-2.41972 3.69868,-4.6426 4.80153,-7.39435 0.88871,-2.76111 1.61246,-5.49157 1.34575,-8.43103 0.001,-2.9129 0.012,-5.82788 -0.13748,-8.73788 -0.21303,-3.20523 -0.59002,-6.4036 -1.5088,-9.49433 -0.85667,-2.99305 -1.51744,-6.02993 -2.81049,-8.88758 -1.40605,-3.17009 -3.1239,-6.08545 -5.32342,-8.77658 -2.298757,-3.11746 -4.471877,-6.3262 -6.905237,-9.34601 -3.20481,-3.09724 -6.81625,-5.69873 -10.30398,-8.46372 -5.26971,-4.03928 -10.58363,-8.02586 -15.92147,-11.97253 -3.92579,-2.66536 -7.872457,-5.34875 -12.119849,-7.48091 -3.17335,-1.46797 -6.410561,-2.984273 -9.973124,-3.083363 -3.997366,-0.007 -7.994916,-0.0215 -11.992162,0.017 0,0 8.005494,-5.81633 8.005494,-5.81633 z"
         id="path4184-4"
         style="fill:#000000;fill-opacity:1;fill-rule:nonzero;stroke:#000000;stroke-width:5;stroke-linecap:butt;stroke-linejoin:miter;stroke-miterlimit:1;stroke-dasharray:none;stroke-opacity:1" />
    </g>
    <rect
       style="fill:#8f4db3;fill-opacity:1;fill-rule:nonzero;stroke:#000000;stroke-width:0.32335833;stroke-linecap:butt;stroke-linejoin:miter;stroke-miterlimit:4;stroke-dasharray:none;stroke-opacity:1"
       id="rect4479"
       width="16.757837"
       height="43.612862"
       x="488.45667"
       y="368.18771"
       ry="7.9585519" />
    <path
       sodipodi:type="star"
       style="opacity:1;fill:#ff13cf;fill-opacity:1;fill-rule:nonzero;stroke:#205020;stroke-width:1;stroke-linecap:butt;stroke-linejoin:miter;stroke-miterlimit:4;stroke-dasharray:none;stroke-opacity:1"
       id="path6682-52-2-6-6-5"
       sodipodi:sides="5"
       sodipodi:cx="556"
       sodipodi:cy="354.36221"
       sodipodi:r1="25.455845"
       sodipodi:r2="20.594212"
       sodipodi:arg1="0.78539816"
       sodipodi:arg2="1.4137167"
       inkscape:flatsided="true"
       inkscape:rounded="0"
       inkscape:randomized="0"
       d="m 574,372.36221 -29.55671,4.68133 -13.58573,-26.6635 21.16027,-21.16027 26.66349,13.58573 z"
       inkscape:transform-center-x="81.797819"
       inkscape:transform-center-y="-0.52304554"
       transform="matrix(-0.09734682,0.48444803,-0.57106919,-0.11376839,765.042,161.56562)" />
    <text
       xml:space="preserve"
       style="font-style:normal;font-weight:normal;font-size:40px;line-height:125%;font-family:Sans;letter-spacing:0px;word-spacing:0px;fill:#733ea2;fill-opacity:1;stroke:none;stroke-width:1px;stroke-linecap:butt;stroke-linejoin:miter;stroke-opacity:1;"
       x="427.14285"
       y="395.57651"
       id="text9745"
       sodipodi:linespacing="125%"><tspan
         sodipodi:role="line"
         id="tspan9747"
         x="427.14285"
         y="395.57651"
         style="font-style:normal;font-variant:normal;font-weight:normal;font-stretch:normal;font-size:25px;line-height:125%;font-family:Sans;-inkscape-font-specification:'Sans, Normal';text-align:start;writing-mode:lr-tb;text-anchor:start;stroke:none;stroke-opacity:1;fill:#733ea2;fill-opacity:1;">SRF</tspan></text>
    <text
       xml:space="preserve"
       style="font-style:normal;font-variant:normal;font-weight:normal;font-stretch:normal;font-size:25px;line-height:125%;font-family:Sans;-inkscape-font-specification:'Sans, Normal';text-align:start;letter-spacing:0px;word-spacing:0px;writing-mode:lr-tb;text-anchor:start;fill:#f100ff;fill-opacity:1;stroke:none;stroke-width:1px;stroke-linecap:butt;stroke-linejoin:miter;stroke-opacity:1"
       x="512.85718"
       y="369.86221"
       id="text9749"
       sodipodi:linespacing="125%"><tspan
         sodipodi:role="line"
         id="tspan9751"
         x="512.85718"
         y="369.86221">MRTF</tspan></text>
    <text
       xml:space="preserve"
       style="font-style:normal;font-variant:normal;font-weight:normal;font-stretch:normal;font-size:25px;line-height:125%;font-family:Sans;-inkscape-font-specification:'Sans, Normal';text-align:start;letter-spacing:0px;word-spacing:0px;writing-mode:lr-tb;text-anchor:start;fill:#000000;fill-opacity:1;stroke:none;stroke-width:1px;stroke-linecap:butt;stroke-linejoin:miter;stroke-opacity:1"
       x="492.14285"
       y="323.07648"
       id="text9753"
       sodipodi:linespacing="125%"><tspan
         sodipodi:role="line"
         id="tspan9755"
         x="492.14285"
         y="323.07648">DNA</tspan></text>
  </g>
</svg>
