<?xml version="1.0" encoding="UTF-8"?>
<svg xmlns="http://www.w3.org/2000/svg"
    xmlns:latexdraw="http://latexdraw.sourceforge.net/namespaces/latexdraw"
    version="1.1" baseProfile="full">
    <defs>
        <marker refX="-1.0" overflow="visible" orient="auto" id="arrow1-338">
            <circle r="1.8819444444444444" latexdraw:dotSizeNum="2.0" fill="#999999"/>
        </marker>
        <marker refX="-1.0" overflow="visible" orient="auto" id="arrow1-339">
            <circle r="1.8819444444444444" latexdraw:dotSizeNum="2.0" fill="#999999"/>
        </marker>
        <marker refX="-1.0" overflow="visible" orient="auto" id="arrow1-340">
            <circle r="1.8819444444444444" latexdraw:dotSizeNum="2.0" fill="#999999"/>
        </marker>
        <marker refX="-1.0" overflow="visible" orient="auto" id="arrow1-341">
            <circle r="1.8819444444444444" latexdraw:dotSizeNum="2.0" fill="#999999"/>
        </marker>
        <marker refX="-1.0" overflow="visible" orient="auto" id="arrow1-344">
            <circle r="1.8819444444444444" latexdraw:dotSizeNum="2.0" fill="#999999"/>
        </marker>
        <marker overflow="visible" orient="auto" id="arrow1-345">
            <circle r="1.8819444444444444" latexdraw:dotSizeNum="2.0" fill="black"/>
        </marker>
        <marker overflow="visible" orient="auto" id="arrow2-345">
            <path
                d="M 0.0 0.0 L -4.652083333333334 1.6614583333333335 L -2.79125 0.0 L -4.652083333333334 -1.6614583333333335 z "
                latexdraw:arrSizeNum="2.0" fill="black"/>
        </marker>
        <marker overflow="visible" orient="auto" id="arrow1-346">
            <path
                d="M 0.5 -3.3819444444444446 L 0.5 3.3819444444444446 "
                latexdraw:tbarSizeNum="5.0" stroke="black" fill="none" stroke-width="1.0"/>
        </marker>
        <marker overflow="visible" orient="auto" id="arrow2-346">
            <path
                d="M 0.0 0.0 L -4.652083333333334 1.6614583333333335 L -2.79125 0.0 L -4.652083333333334 -1.6614583333333335 z "
                latexdraw:arrSizeNum="2.0" fill="black"/>
        </marker>
    </defs>
    <g>
        <g latexdraw:type="akinPoints" id="id283" latexdraw:pathType="1"
            latexdraw:interval="5" latexdraw:points="164.68539325842687 311.0 148.1235955056177 311.0 131.56179775280862 311.0 115.0 311.0 115.0 295.5 98.43820224719116 295.5 98.43820224719116 279.99999999999994 98.43820224719116 264.50000000000006 115.0 264.50000000000006 115.0 249.00000000000003 131.56179775280862 249.00000000000003 148.1235955056177 249.00000000000003 164.68539325842687 249.00000000000003 164.68539325842687 233.5 181.2471910112357 233.5 197.80898876404478 233.5 214.37078651685363 233.5 230.9325842696628 233.5 247.494382022472 233.5 264.05617977528084 233.5 280.6179775280897 233.5 297.17977528089887 217.99999999999994 313.7415730337076 217.99999999999994 330.3033707865168 217.99999999999994 330.3033707865168 202.49999999999994 330.3033707865168 187.0 346.8651685393256 171.50000000000009 363.42696629213435 156.0000000000001 379.98876404494354 156.0000000000001 396.5505617977527 156.0000000000001 413.1123595505617 156.0000000000001 429.6741573033704 156.0000000000001 446.23595505617936 156.0000000000001 462.7977528089888 156.0000000000001 495.92134831460646 156.0000000000001 529.0449438202248 156.0000000000001 545.6067415730329 156.0000000000001 562.1685393258427 156.0000000000001 562.1685393258427 171.50000000000009 578.7303370786512 171.50000000000009 595.2921348314604 187.0 611.8539325842687 187.0 611.8539325842687 202.49999999999994 611.8539325842687 217.99999999999994 628.4157303370786 217.99999999999994 644.9775280898872 217.99999999999994 661.5393258426968 233.5 678.1011235955052 233.5 694.6629213483147 233.5 711.2247191011231 233.5 727.7865168539324 233.5 744.3483146067404 233.5 760.9101123595501 217.99999999999994 777.4719101123593 217.99999999999994 794.033707865168 217.99999999999994 794.033707865168 233.5 810.5955056179776 233.5 827.157303370786 233.5 843.7191011235955 233.5 860.2808988764044 233.5 860.2808988764044 249.00000000000003 860.2808988764044 264.50000000000006 860.2808988764044 279.99999999999994 860.2808988764044 295.5 843.7191011235955 295.5 843.7191011235955 311.0 827.157303370786 311.0 810.5955056179776 311.0 794.033707865168 311.0 777.4719101123593 311.0 760.9101123595501 311.0 744.3483146067404 311.0 727.7865168539324 311.0 711.2247191011231 311.0 694.6629213483147 311.0 678.1011235955052 311.0 661.5393258426968 311.0 644.9775280898872 311.0 628.4157303370786 311.0 611.8539325842687 311.0 595.2921348314604 311.0 578.7303370786512 311.0 562.1685393258427 311.0 545.6067415730329 311.0 529.0449438202248 311.0 512.4831460674152 311.0 495.92134831460646 311.0 479.35955056179773 311.0 462.7977528089888 311.0 446.23595505617936 311.0 429.6741573033704 311.0 413.1123595505617 311.0 396.5505617977527 311.0 379.98876404494354 311.0 346.8651685393256 311.0 330.3033707865168 311.0 313.7415730337076 311.0 297.17977528089887 311.0 280.6179775280897 311.0 264.05617977528084 311.0 247.494382022472 311.0 230.9325842696628 311.0 214.37078651685363 311.0 197.80898876404478 311.0 181.2471910112357 311.0 164.68539325842687 311.0 148.1235955056177 311.0 ">
            <path
                d="M 164.68539428710938 311.0 L 131.56179809570312 303.25 C 115.0 299.375 106.71910095214844 283.875 115.0 272.25 C 123.28089904785156 260.625 148.12359619140625 245.125 164.68539428710938 241.25 C 181.2471923828125 237.375 218.51123046875 233.5 239.21348571777344 233.5 C 259.9157409667969 233.5 293.0393371582031 221.875 305.460693359375 210.25 C 317.88201904296875 198.625 351.005615234375 179.25 371.7078857421875 171.5 C 392.4101257324219 163.75 442.09552001953125 156.0 471.0786437988281 156.0 C 500.061767578125 156.0 545.606689453125 163.75 562.1685180664062 171.5 C 578.7303466796875 179.25 607.7135009765625 194.75 620.1348266601562 202.5 C 632.55615234375 210.25 665.6798095703125 221.875 686.3820190429688 225.75 C 707.084228515625 229.625 744.3482666015625 233.5 760.9100952148438 233.5 C 777.471923828125 233.5 810.595458984375 237.375 827.1572875976562 241.25 C 843.7191162109375 245.125 856.1404418945312 264.5 852.0 280.0 C 847.8595581054688 295.5 823.016845703125 311.0 802.3145751953125 311.0 C 781.6123046875 311.0 740.2078857421875 311.0 719.505615234375 311.0 C 698.8033447265625 311.0 657.39892578125 311.0 636.6966552734375 311.0 C 615.994384765625 311.0 574.58984375 311.0 553.8876342773438 311.0 C 533.1854248046875 311.0 491.7809143066406 311.0 471.07867431640625 311.0 C 450.37640380859375 311.0 404.83148193359375 311.0 379.98876953125 311.0 C 355.14605712890625 311.0 309.60113525390625 311.0 288.89886474609375 311.0 C 268.1966247558594 311.0 226.79214477539062 311.0 206.0898895263672 311.0 C 185.38763427734375 311.0 160.54495239257812 311.0 148.1235955056177 311.0 "
                stroke-width="2.0" stroke="black" fill="white" latexdraw:rotationAngle="0.0"/>
        </g>
        <g latexdraw:type="akinPoints" id="id284" latexdraw:pathType="1"
            latexdraw:interval="5" latexdraw:points="170.67415730337075 307.0 154.44943820224694 307.0 138.22471910112324 307.0 122.0 307.0 122.0 292.70000000000056 105.77528089887642 292.70000000000056 105.77528089887642 278.3999999999999 105.77528089887642 264.1 122.0 264.1 122.0 249.80000000000004 138.22471910112324 249.80000000000004 154.44943820224694 249.80000000000004 170.67415730337075 249.80000000000004 170.67415730337075 235.5 186.8988764044941 235.5 203.1235955056179 235.5 219.34831460674138 235.5 235.5730337078652 235.5 251.7977528089889 235.5 268.0224719101125 235.5 284.2471910112358 235.5 300.47191011235975 221.19999999999985 316.6966292134832 221.19999999999985 332.9213483146068 221.19999999999985 332.9213483146068 206.89999999999947 332.9213483146068 192.6000000000002 349.1460674157302 178.30000000000027 365.37078651685385 164.00000000000023 381.5955056179772 164.00000000000023 397.82022471910074 164.00000000000023 414.0449438202243 164.00000000000023 430.2696629213476 164.00000000000023 446.4943820224711 164.00000000000023 462.71910112359535 164.00000000000023 495.1685393258422 164.00000000000023 527.6179775280898 164.00000000000023 543.8426966292136 164.00000000000023 560.0674157303367 164.00000000000023 560.0674157303367 178.30000000000027 576.2921348314612 178.30000000000027 592.5168539325833 192.6000000000002 608.7415730337078 192.6000000000002 608.7415730337078 206.89999999999947 608.7415730337078 221.19999999999985 624.9662921348311 221.19999999999985 641.1910112359543 221.19999999999985 657.4157303370782 235.5 673.6404494382015 235.5 689.8651685393252 235.5 706.0898876404488 235.5 722.314606741572 235.5 738.5393258426949 235.5 754.764044943819 221.19999999999985 770.9887640449431 221.19999999999985 787.2134831460661 221.19999999999985 787.2134831460661 235.5 803.4382022471906 235.5 819.6629213483135 235.5 835.8876404494375 235.5 852.1123595505612 235.5 852.1123595505612 249.80000000000004 852.1123595505612 264.1 852.1123595505612 278.3999999999999 852.1123595505612 292.70000000000056 835.8876404494375 292.70000000000056 835.8876404494375 307.0 819.6629213483135 307.0 803.4382022471906 307.0 787.2134831460661 307.0 770.9887640449431 307.0 754.764044943819 307.0 738.5393258426949 307.0 722.314606741572 307.0 706.0898876404488 307.0 689.8651685393252 307.0 673.6404494382015 307.0 657.4157303370782 307.0 641.1910112359543 307.0 624.9662921348311 307.0 608.7415730337078 307.0 592.5168539325833 307.0 576.2921348314612 307.0 560.0674157303367 307.0 543.8426966292136 307.0 527.6179775280898 307.0 511.3932584269662 307.0 495.1685393258422 307.0 478.94382022471876 307.0 462.71910112359535 307.0 446.4943820224711 307.0 430.2696629213476 307.0 414.0449438202243 307.0 397.82022471910074 307.0 381.5955056179772 307.0 349.1460674157302 307.0 332.9213483146068 307.0 316.6966292134832 307.0 300.47191011235975 307.0 284.2471910112358 307.0 268.0224719101125 307.0 251.7977528089889 307.0 235.5730337078652 307.0 219.34831460674138 307.0 203.1235955056179 307.0 186.8988764044941 307.0 170.67415730337075 307.0 154.44943820224694 307.0 ">
            <path
                d="M 170.67416381835938 307.0 L 138.2247314453125 299.8500061035156 C 122.00000762939453 296.2750244140625 113.88764190673828 281.9750061035156 122.0 271.25 C 130.11236572265625 260.5249938964844 154.44943237304688 246.22500610351562 170.67416381835938 242.64999389648438 C 186.8988800048828 239.0749969482422 223.4044952392578 235.5 243.68539428710938 235.5 C 263.96630859375 235.5 296.4157409667969 224.77499389648438 308.58428955078125 214.0500030517578 C 320.7528076171875 203.32501220703125 353.2022705078125 185.45001220703125 373.483154296875 178.3000030517578 C 393.7640380859375 171.14999389648438 442.438232421875 164.0 470.83148193359375 164.0 C 499.2247314453125 164.0 543.8426513671875 171.14999389648438 560.0673828125 178.3000030517578 C 576.2921142578125 185.45001220703125 604.6854248046875 199.75 616.8539428710938 206.89999389648438 C 629.0224609375 214.04998779296875 661.471923828125 224.77499389648438 681.7528076171875 228.35000610351562 C 702.03369140625 231.9250030517578 738.539306640625 235.5 754.7640380859375 235.5 C 770.98876953125 235.5 803.438232421875 239.0749969482422 819.6629638671875 242.64999389648438 C 835.8876953125 246.22500610351562 848.05615234375 264.1000061035156 844.0 278.3999938964844 C 839.94384765625 292.70001220703125 815.606689453125 307.0 795.3258056640625 307.0 C 775.044921875 307.0 734.483154296875 307.0 714.2022705078125 307.0 C 693.92138671875 307.0 653.3594970703125 307.0 633.07861328125 307.0 C 612.7977294921875 307.0 572.2359619140625 307.0 551.955078125 307.0 C 531.6741943359375 307.0 491.11236572265625 307.0 470.8314514160156 307.0 C 450.550537109375 307.0 405.9325866699219 307.0 381.59552001953125 307.0 C 357.2584228515625 307.0 312.64044189453125 307.0 292.35955810546875 307.0 C 272.07867431640625 307.0 231.51686096191406 307.0 211.2359619140625 307.0 C 190.95506286621094 307.0 166.61798095703125 307.0 154.44943820224694 307.0 "
                stroke-width="5.400000095367432" stroke="#009900"
                fill="none" latexdraw:rotationAngle="0.0"/>
        </g>
        <g latexdraw:type="line" id="id285">
            <line x1="64.0" x2="534.0" y1="341.0" y2="341.0"
                stroke-width="2.0" stroke="black" latexdraw:rotationAngle="0.0"/>
        </g>
        <g latexdraw:type="ellipse" id="id286">
            <ellipse cx="471.0" cy="214.0" rx="93.0" ry="43.0"
                latexdraw:borderPos="outer" stroke-width="2.0"
                stroke="black" fill="#33ccff"/>
        </g>
        <g latexdraw:type="rectangle" id="id288">
            <rect x="415.0" y="292.0" width="8.0" height="28.0"
                latexdraw:borderPos="outer" stroke-width="2.0"
                stroke="red" fill="#ff9900"/>
        </g>
        <g latexdraw:type="rectangle" id="id289">
            <rect x="295.0" y="292.0" width="8.0" height="28.0"
                latexdraw:borderPos="outer" stroke-width="2.0"
                stroke="red" fill="#ff9900"/>
        </g>
        <g latexdraw:type="rectangle" id="id290">
            <rect x="185.0" y="292.0" width="8.0" height="28.0"
                latexdraw:borderPos="outer" stroke-width="2.0"
                stroke="red" fill="#ff9900"/>
        </g>
        <g latexdraw:type="rectangle" id="id291">
            <rect x="182.0" y="243.0" width="8.0" height="28.0"
                latexdraw:borderPos="outer" stroke-width="2.0"
                stroke="red" fill="#ff9900"/>
        </g>
        <g latexdraw:type="polygon" id="id292" transform="rotate(-1.784052099950485) translate(-6.895562663189878 7.602287717918841)">
            <polygon
                points="234.46759582491558,195.77065597899596 247.91755992557626,210.57263103947164 255.31854745581387,203.84764898914133 268.7685115564747,218.6496240496168 261.36752402623665,225.37460609994744 254.64254197590645,217.97361856970952 247.2415544456686,224.69860062003966 253.96653649599875,232.09958815027753 246.56554896576088,238.82457020060735 233.11558486510037,224.02259514013204 240.51657239533844,217.29761308980184 227.06660829467748,202.49563802932644 "
                stroke-width="2.0" stroke="#0000cc" fill="blue"/>
        </g>
        <g latexdraw:type="polygon" id="id293" transform="rotate(0.249509424935765) translate(1.0346567115200287 -0.8165944350642178)">
            <polygon
                points="192.1088212706167,213.02201078499508 192.02172632629706,233.02182114586302 202.02163150673073,233.06536861802292 201.93453656241104,253.06517897889063 191.934631381977,253.0216315067306 191.97817885413687,243.02172632629686 181.9782736737031,242.9781788541368 181.93472620154316,252.9780840345707 171.9348210211092,252.9345365624109 172.02191596542906,232.93472620154301 182.02182114586313,232.97827367370286 182.10891609018293,212.9784633128353 "
                stroke-width="2.0" stroke="#0000cc" fill="blue"/>
        </g>
        <g latexdraw:type="polygon" id="id294">
            <polygon
                points="184.0,351.0 184.0,331.0 174.0,331.0 174.0,311.0 184.0,311.0 184.0,321.0 194.0,321.0 194.0,311.0 204.0,311.0 204.0,331.0 194.0,331.0 194.0,351.0 "
                stroke-width="2.0" stroke="#0000cc" fill="blue"/>
        </g>
        <g latexdraw:type="polygon" id="id295">
            <polygon
                points="294.0,351.0 294.0,331.0 284.0,331.0 284.0,311.0 294.0,311.0 294.0,321.0 304.0,321.0 304.0,311.0 314.0,311.0 314.0,331.0 304.0,331.0 304.0,351.0 "
                stroke-width="2.0" stroke="#0000cc" fill="blue"/>
        </g>
        <g latexdraw:type="polygon" id="id296">
            <polygon
                points="414.0,351.0 414.0,331.0 404.0,331.0 404.0,311.0 414.0,311.0 414.0,321.0 424.0,321.0 424.0,311.0 434.0,311.0 434.0,331.0 424.0,331.0 424.0,351.0 "
                stroke-width="2.0" stroke="#0000cc" fill="blue"/>
        </g>
        <g latexdraw:type="rectangle" id="id297" transform="rotate(138.90884648641384) translate(-302.91746830542047 -581.7576289952625)">
            <rect x="256.47767383573927" y="220.11335142470364"
                width="8.0" height="28.0" latexdraw:borderPos="outer"
                stroke-width="2.0" stroke="red" fill="#ff9900"/>
        </g>
        <g latexdraw:type="circle" id="id298">
            <circle cx="195.0" cy="166.0" r="47.0"
                latexdraw:borderPos="outer" stroke-width="2.0"
                stroke="#ff0033" fill="#cc0000"/>
        </g>
        <g latexdraw:type="line" id="id300">
            <line x1="393.0" x2="863.0" y1="341.0" y2="341.0"
                stroke-width="2.0" stroke="black" latexdraw:rotationAngle="0.0"/>
        </g>
        <g latexdraw:type="rectangle" id="id301">
            <rect x="744.0" y="292.0" width="8.0" height="28.0"
                latexdraw:borderPos="outer" stroke-width="2.0"
                stroke="red" fill="#ff9900"/>
        </g>
        <g latexdraw:type="rectangle" id="id302">
            <rect x="624.0" y="292.0" width="8.0" height="28.0"
                latexdraw:borderPos="outer" stroke-width="2.0"
                stroke="red" fill="#ff9900"/>
        </g>
        <g latexdraw:type="rectangle" id="id303">
            <rect x="514.0" y="292.0" width="8.0" height="28.0"
                latexdraw:borderPos="outer" stroke-width="2.0"
                stroke="red" fill="#ff9900"/>
        </g>
        <g latexdraw:type="polygon" id="id304">
            <polygon
                points="513.0,351.0 513.0,331.0 503.0,331.0 503.0,311.0 513.0,311.0 513.0,321.0 523.0,321.0 523.0,311.0 533.0,311.0 533.0,331.0 523.0,331.0 523.0,351.0 "
                stroke-width="2.0" stroke="#0000cc" fill="blue"/>
        </g>
        <g latexdraw:type="polygon" id="id305">
            <polygon
                points="623.0,351.0 623.0,331.0 613.0,331.0 613.0,311.0 623.0,311.0 623.0,321.0 633.0,321.0 633.0,311.0 643.0,311.0 643.0,331.0 633.0,331.0 633.0,351.0 "
                stroke-width="2.0" stroke="#0000cc" fill="blue"/>
        </g>
        <g latexdraw:type="polygon" id="id306">
            <polygon
                points="743.0,351.0 743.0,331.0 733.0,331.0 733.0,311.0 743.0,311.0 743.0,321.0 753.0,321.0 753.0,311.0 763.0,311.0 763.0,331.0 753.0,331.0 753.0,351.0 "
                stroke-width="2.0" stroke="#0000cc" fill="blue"/>
        </g>
        <g latexdraw:type="akinPoints" id="id307" latexdraw:pathType="1"
            latexdraw:interval="5" latexdraw:points="129.0 288.0 133.0 288.0 173.0 288.0 209.0 292.0 230.0 293.0 234.0 293.0 ">
            <path d="M 129.0 288.0 L 181.5 290.5 " stroke-width="2.0"
                stroke="lime" fill="none" latexdraw:rotationAngle="0.0"/>
        </g>
        <g latexdraw:type="akinPoints" id="id308" latexdraw:pathType="1"
            latexdraw:interval="5" latexdraw:points="190.0 288.0 190.0 289.0 190.0 290.0 190.0 292.0 191.0 292.0 196.0 291.0 224.0 284.0 264.0 281.0 279.0 281.0 281.0 281.0 281.0 282.0 281.0 281.0 281.0 278.0 281.0 275.0 286.0 273.0 295.0 273.0 298.0 277.0 298.0 278.0 298.0 279.0 ">
            <path
                d="M 190.0 288.0 L 193.0 289.5 C 194.5 290.25 217.25 288.75 238.5 286.5 C 259.75 284.25 284.5 279.75 288.0 277.5 C 291.5 275.25 295.75 274.5 298.0 279.0 "
                stroke-width="2.0" stroke="lime" fill="none" latexdraw:rotationAngle="0.0"/>
        </g>
        <g latexdraw:type="bezierCurve" id="id309">
            <path
                d="M 335.0 225.0 C 335.0 265.0 373.9966466673796 198.99902207175114 360.0 247.0 C 346.0033533326204 295.00097792824886 178.26197091676534 325.71517228821176 167.0 277.0 "
                stroke-width="2.0" stroke="lime" fill="none" latexdraw:rotationAngle="0.0"/>
        </g>
        <g latexdraw:type="bezierCurve" id="id312">
            <path
                d="M 366.0 239.0 C 366.0 279.0 446.0505733142012 278.7517175978039 496.0 281.0 C 545.9494266857988 283.2482824021961 637.5276572025338 299.7945812340149 633.0 250.0 "
                stroke-width="2.0" stroke="lime" fill="none" latexdraw:rotationAngle="0.0"/>
        </g>
        <g latexdraw:type="akinPoints" id="id315" latexdraw:pathType="1"
            latexdraw:interval="5" latexdraw:points="269.0 243.0 270.0 243.0 286.0 244.0 312.0 251.0 315.0 253.0 317.0 254.0 319.0 256.0 319.0 257.0 ">
            <path
                d="M 269.0 243.0 L 293.0 248.5 C 305.0 251.25 317.5 254.75 319.0 257.0 "
                stroke-width="2.0" stroke="lime" fill="none" latexdraw:rotationAngle="0.0"/>
        </g>
        <g latexdraw:type="akinPoints" id="id316" latexdraw:pathType="1"
            latexdraw:interval="5" latexdraw:points="306.0 255.0 309.0 255.0 321.0 255.0 338.0 258.0 358.0 264.0 373.0 268.0 389.0 272.0 393.0 272.0 395.0 273.0 396.0 273.0 399.0 273.0 409.0 270.0 418.0 269.0 424.0 268.0 429.0 267.0 432.0 267.0 435.0 269.0 ">
            <path
                d="M 306.0 255.0 L 339.5 261.5 C 356.25 264.75 379.5 269.25 386.0 270.5 C 392.5 271.75 407.25 271.5 415.5 270.0 C 423.75 268.5 432.75 267.5 435.0 269.0 "
                stroke-width="2.0" stroke="lime" fill="none" latexdraw:rotationAngle="0.0"/>
        </g>
        <g latexdraw:type="akinPoints" id="id317" latexdraw:pathType="1"
            latexdraw:interval="5" latexdraw:points="179.0 272.0 180.0 272.0 196.0 272.0 204.0 272.0 268.0 278.0 316.0 279.0 332.0 273.0 336.0 270.0 340.0 267.0 341.0 266.0 345.0 264.0 352.0 261.0 358.0 258.0 361.0 257.0 363.0 256.0 364.0 256.0 365.0 256.0 ">
            <path
                d="M 179.0 272.0 L 247.5 275.5 C 281.75 277.25 323.25 275.25 330.5 271.5 C 337.75 267.75 349.75 262.0 354.5 260.0 C 359.25 258.0 364.25 256.0 365.0 256.0 "
                stroke-width="2.0" stroke="lime" fill="none" latexdraw:rotationAngle="0.0"/>
        </g>
        <g latexdraw:type="akinPoints" id="id318" latexdraw:pathType="1"
            latexdraw:interval="5" latexdraw:points="299.0 288.0 304.0 285.0 342.0 278.0 361.0 278.0 374.0 280.0 395.0 281.0 410.0 281.0 416.0 281.0 417.0 281.0 419.0 282.0 419.0 283.0 419.0 284.0 419.0 285.0 419.0 287.0 419.0 288.0 420.0 289.0 420.0 290.0 ">
            <path
                d="M 299.0 288.0 L 347.0 284.5 C 371.0 282.75 401.0 281.5 407.0 282.0 C 413.0 282.5 419.25 284.5 419.5 286.0 C 419.75 287.5 420.0 289.25 420.0 290.0 "
                stroke-width="2.0" stroke="lime" fill="none" latexdraw:rotationAngle="0.0"/>
        </g>
        <g latexdraw:type="akinPoints" id="id319" latexdraw:pathType="1"
            latexdraw:interval="5" latexdraw:points="832.0 268.0 831.0 268.0 810.0 273.0 735.0 277.0 728.0 276.0 728.0 275.0 ">
            <path d="M 832.0 268.0 L 780.0 271.5 " stroke-width="2.0"
                stroke="lime" fill="none" latexdraw:rotationAngle="0.0"/>
        </g>
        <g latexdraw:type="akinPoints" id="id320" latexdraw:pathType="1"
            latexdraw:interval="5" latexdraw:points="829.0 291.0 822.0 291.0 800.0 290.0 764.0 284.0 738.0 278.0 729.0 277.0 728.0 277.0 ">
            <path
                d="M 829.0 291.0 L 779.0 284.0 C 754.0 280.5 728.75 277.0 728.0 277.0 "
                stroke-width="2.0" stroke="lime" fill="none" latexdraw:rotationAngle="0.0"/>
        </g>
        <g latexdraw:type="akinPoints" id="id321" latexdraw:pathType="1"
            latexdraw:interval="5" latexdraw:points="787.0 280.0 786.0 280.0 785.0 280.0 777.0 282.0 760.0 288.0 737.0 294.0 724.0 297.0 718.0 297.0 713.0 297.0 704.0 295.0 702.0 294.0 702.0 293.0 703.0 293.0 701.0 293.0 696.0 293.0 684.0 291.0 662.0 291.0 650.0 291.0 647.0 290.0 643.0 289.0 643.0 288.0 641.0 288.0 636.0 288.0 614.0 288.0 609.0 288.0 607.0 288.0 605.0 288.0 604.0 288.0 601.0 286.0 584.0 278.0 542.0 265.0 530.0 261.0 529.0 261.0 528.0 261.0 527.0 261.0 522.0 261.0 520.0 261.0 515.0 261.0 510.0 261.0 506.0 261.0 ">
            <path
                d="M 787.0 280.0 L 762.0 287.0 C 749.5 290.5 728.25 294.0 719.5 294.0 C 710.75 294.0 697.5 293.25 693.0 292.5 C 688.5 291.75 673.75 290.25 663.5 289.5 C 653.25 288.75 634.0 288.0 625.0 288.0 C 616.0 288.0 590.75 282.25 574.5 276.5 C 558.25 270.75 537.0 264.0 532.0 263.0 C 527.0 262.0 518.0 261.0 506.0 261.0 "
                stroke-width="2.0" stroke="lime" fill="none" latexdraw:rotationAngle="0.0"/>
        </g>
        <g latexdraw:type="akinPoints" id="id322" latexdraw:pathType="1"
            latexdraw:interval="5" latexdraw:points="539.0 290.0 537.0 290.0 488.0 276.0 444.0 268.0 437.0 264.0 436.0 264.0 435.0 264.0 431.0 266.0 423.0 269.0 413.0 275.0 409.0 275.0 408.0 275.0 409.0 275.0 ">
            <path
                d="M 539.0 290.0 L 487.5 277.0 C 461.75 270.5 429.25 266.75 422.5 269.5 C 415.75 272.25 409.0 275.0 409.0 275.0 "
                stroke-width="2.0" stroke="lime" fill="none" latexdraw:rotationAngle="0.0"/>
        </g>
        <g latexdraw:type="akinPoints" id="id323" latexdraw:pathType="1"
            latexdraw:interval="5" latexdraw:points="494.0 286.0 501.0 284.0 576.0 279.0 625.0 284.0 632.0 286.0 657.0 291.0 668.0 291.0 673.0 291.0 674.0 291.0 674.0 290.0 674.0 289.0 675.0 288.0 680.0 285.0 696.0 280.0 712.0 277.0 718.0 277.0 722.0 277.0 726.0 277.0 730.0 278.0 733.0 279.0 ">
            <path
                d="M 494.0 286.0 L 575.5 288.5 C 616.25 289.75 661.25 290.5 665.5 290.0 C 669.75 289.5 685.0 286.0 696.0 283.0 C 707.0 280.0 721.75 277.5 733.0 279.0 "
                stroke-width="2.0" stroke="lime" fill="none" latexdraw:rotationAngle="0.0"/>
        </g>
        <g latexdraw:type="akinPoints" id="id324" latexdraw:pathType="1"
            latexdraw:interval="5" latexdraw:points="802.0 251.0 802.0 252.0 796.0 252.0 732.0 257.0 677.0 257.0 664.0 256.0 661.0 254.0 659.0 254.0 644.0 247.0 620.0 235.0 607.0 231.0 603.0 230.0 584.0 225.0 580.0 219.0 ">
            <path
                d="M 802.0 251.0 L 733.0 253.5 C 698.5 254.75 649.75 249.75 635.5 243.5 C 621.25 237.25 600.25 228.0 580.0 219.0 "
                stroke-width="2.0" stroke="lime" fill="none" latexdraw:rotationAngle="0.0"/>
        </g>
        <g latexdraw:type="akinPoints" id="id325" latexdraw:pathType="1"
            latexdraw:interval="5" latexdraw:points="733.0 253.0 732.0 252.0 730.0 248.0 730.0 247.0 760.0 252.0 805.0 270.0 817.0 276.0 827.0 282.0 829.0 285.0 829.0 286.0 ">
            <path
                d="M 733.0 253.0 L 769.0 261.5 C 787.0 265.75 811.0 274.0 829.0 286.0 "
                stroke-width="2.0" stroke="lime" fill="none" latexdraw:rotationAngle="0.0"/>
        </g>
        <g latexdraw:type="akinPoints" id="id326" latexdraw:pathType="1"
            latexdraw:interval="5" latexdraw:points="749.0 247.0 742.0 247.0 686.0 269.0 655.0 279.0 639.0 279.0 628.0 279.0 622.0 279.0 ">
            <path
                d="M 749.0 247.0 L 688.5 263.0 C 658.25 271.0 626.5 279.0 622.0 279.0 "
                stroke-width="2.0" stroke="lime" fill="none" latexdraw:rotationAngle="0.0"/>
        </g>
        <g latexdraw:type="akinPoints" id="id327" latexdraw:pathType="1"
            latexdraw:interval="5" latexdraw:points="692.0 230.0 690.0 230.0 673.0 226.0 620.0 217.0 581.0 210.0 557.0 194.0 551.0 184.0 551.0 182.0 ">
            <path
                d="M 692.0 230.0 L 624.5 212.0 C 590.75 203.0 555.5 191.0 551.0 182.0 "
                stroke-width="2.0" stroke="lime" fill="none" latexdraw:rotationAngle="0.0"/>
        </g>
        <g latexdraw:type="akinPoints" id="id328" latexdraw:pathType="1"
            latexdraw:interval="5" latexdraw:points="651.0 216.0 624.0 235.0 563.0 263.0 525.0 278.0 523.0 278.0 522.0 277.0 ">
            <path d="M 651.0 216.0 L 586.5 246.5 " stroke-width="2.0"
                stroke="lime" fill="none" latexdraw:rotationAngle="0.0"/>
        </g>
        <g latexdraw:type="akinPoints" id="id329" latexdraw:pathType="1"
            latexdraw:interval="5" latexdraw:points="300.0 248.0 306.0 240.0 323.0 225.0 335.0 211.0 349.0 198.0 354.0 194.0 366.0 187.0 375.0 183.0 381.0 180.0 384.0 179.0 385.0 179.0 ">
            <path
                d="M 300.0 248.0 L 327.0 221.0 C 340.5 207.5 361.75 190.25 369.5 186.5 "
                stroke-width="2.0" stroke="lime" fill="none" latexdraw:rotationAngle="0.0"/>
        </g>
        <g latexdraw:type="text" id="id330"
            font-family="Times New Roman" fill="#999999" font-size="18" latexdraw:x="518.0">
            <text x="518.0" y="130.0"><![CDATA[\definecolor{color9}{rgb}{0.6,0.6,0.6}
\color{color9}Noyau]]></text>
        </g>
        <g latexdraw:type="text" id="id332"
            font-family="Times New Roman" fill="#999999" font-size="18" latexdraw:x="693.0">
            <text x="693.0" y="196.0"><![CDATA[\definecolor{color9}{rgb}{0.6,0.6,0.6}
\color{color9}Cytosquelette (fibres de stress)]]></text>
        </g>
        <g latexdraw:type="text" id="id334"
            font-family="Times New Roman" fill="#999999" font-size="18" latexdraw:x="22.0">
            <text x="22.0" y="266.0"><![CDATA[\definecolor{color9}{rgb}{0.6,0.6,0.6}
\color{color9}Intégrine]]></text>
        </g>
        <g latexdraw:type="text" id="id336"
            font-family="Times New Roman" fill="#999999" font-size="18" latexdraw:x="673.0">
            <text x="673.0" y="377.0"><![CDATA[\definecolor{color9}{rgb}{0.6,0.6,0.6}
\color{color9}Fibronectine]]></text>
        </g>
        <g latexdraw:type="line" id="id338">
            <line x1="659.0" x2="686.0" y1="248.0" y2="194.0"
                stroke-width="2.0" stroke="#999999"
                latexdraw:rotationAngle="0.0" marker-start="url(#arrow1-338)"/>
        </g>
        <g latexdraw:type="line" id="id339">
            <line x1="630.0" x2="670.0" y1="342.0" y2="371.0"
                stroke-width="2.0" stroke="#999999"
                latexdraw:rotationAngle="0.0" marker-start="url(#arrow1-339)"/>
        </g>
        <g latexdraw:type="line" id="id340">
            <line x1="183.0" x2="96.0" y1="261.0" y2="260.0"
                stroke-width="2.0" stroke="#999999"
                latexdraw:rotationAngle="0.0" marker-start="url(#arrow1-340)"/>
        </g>
        <g latexdraw:type="line" id="id341">
            <line x1="469.0" x2="513.0" y1="208.0" y2="128.0"
                stroke-width="2.0" stroke="#999999"
                latexdraw:rotationAngle="0.0" marker-start="url(#arrow1-341)"/>
        </g>
        <g latexdraw:type="text" id="id342"
            font-family="Times New Roman" fill="#999999" font-size="18" latexdraw:x="628.0">
            <text x="628.0" y="156.0"><![CDATA[\definecolor{color9}{rgb}{0.6,0.6,0.6}
\color{color9}Cytosquelette (cortex)]]></text>
        </g>
        <g latexdraw:type="line" id="id344">
            <line x1="590.0" x2="625.0" y1="195.0" y2="155.0"
                stroke-width="2.0" stroke="#999999"
                latexdraw:rotationAngle="0.0" marker-start="url(#arrow1-344)"/>
        </g>
        <g latexdraw:type="line" id="id345">
            <line x1="196.0" x2="330.0" y1="169.0" y2="169.0"
                stroke-width="2.0" stroke="black"
                latexdraw:rotationAngle="0.0"
                marker-start="url(#arrow1-345)" marker-end="url(#arrow2-345)"/>
        </g>
        <g latexdraw:type="line" id="id346">
            <line x1="315.0" x2="436.0" y1="62.0" y2="62.0"
                stroke-width="2.0" stroke="black"
                latexdraw:rotationAngle="0.0"
                marker-start="url(#arrow1-346)" marker-end="url(#arrow2-346)"/>
        </g>
        <g latexdraw:type="text" id="id347"
            font-family="Times New Roman" fill="black" font-size="18" latexdraw:x="80.0">
            <text x="80.0" y="110.0"><![CDATA[$\vec{m} = \chi V \vec{H}$]]></text>
        </g>
        <g latexdraw:type="text" id="id350"
            font-family="Times New Roman" fill="black" font-size="18" latexdraw:x="240.0">
            <text x="240.0" y="91.0"><![CDATA[$\vec{H} = \frac{\vec{B}}{\mu}$]]></text>
        </g>
        <g latexdraw:type="text" id="id353"
            font-family="Times New Roman" fill="black" font-size="18" latexdraw:x="93.0">
            <text x="93.0" y="153.0"><![CDATA[$\vec{F} = \left( \vec{m}. \vec{\nabla} \right) \vec{B}$]]></text>
        </g>
    </g>
    <metadata>
        <latexdraw:metadata>
            <latexdraw:displayBorders>false</latexdraw:displayBorders>
            <latexdraw:autoAdjust>true</latexdraw:autoAdjust>
            <latexdraw:ppc>50</latexdraw:ppc>
            <latexdraw:zoom>1.0</latexdraw:zoom>
            <latexdraw:unit>cm</latexdraw:unit>
            <latexdraw:classicGrid>false</latexdraw:classicGrid>
            <latexdraw:gridGap>10</latexdraw:gridGap>
            <latexdraw:code>0</latexdraw:code>
            <latexdraw:displayGrid>true</latexdraw:displayGrid>
            <latexdraw:magneticGrid>false</latexdraw:magneticGrid>
            <latexdraw:autoUpdate>false</latexdraw:autoUpdate>
            <latexdraw:version>2.0.4</latexdraw:version>
            <latexdraw:size>
                <latexdraw:width>1032</latexdraw:width>
                <latexdraw:height>578</latexdraw:height>
            </latexdraw:size>
            <latexdraw:position>
                <latexdraw:x>-4</latexdraw:x>
                <latexdraw:y>-4</latexdraw:y>
            </latexdraw:position>
            <latexdraw:dividerPosition>0.8</latexdraw:dividerPosition>
            <latexdraw:displayCodePanel>false</latexdraw:displayCodePanel>
            <latexdraw:displayXScale>true</latexdraw:displayXScale>
            <latexdraw:displayYScale>true</latexdraw:displayYScale>
            <latexdraw:delimitorOpacity>130</latexdraw:delimitorOpacity>
        </latexdraw:metadata>
    </metadata>
</svg>
